<?xml version="1.0" encoding="UTF-8" standalone="no"?>
<!-- Generator: Adobe Illustrator 27.0.0, SVG Export Plug-In . SVG Version: 6.00 Build 0)  -->

<svg
   version="1.1"
   id="Vrstva_1"
   x="0px"
   y="0px"
   viewBox="0 0 457.50001 106.6"
   xml:space="preserve"
   sodipodi:docname="finmap-logo-white.svg"
   width="457.5"
   height="106.6"
   inkscape:version="1.2 (dc2aeda, 2022-05-15)"
   xmlns:inkscape="http://www.inkscape.org/namespaces/inkscape"
   xmlns:sodipodi="http://sodipodi.sourceforge.net/DTD/sodipodi-0.dtd"
   xmlns="http://www.w3.org/2000/svg"
   xmlns:svg="http://www.w3.org/2000/svg"><defs
   id="defs157" /><sodipodi:namedview
   id="namedview155"
   pagecolor="#505050"
   bordercolor="#eeeeee"
   borderopacity="1"
   inkscape:showpageshadow="0"
   inkscape:pageopacity="0"
   inkscape:pagecheckerboard="0"
   inkscape:deskcolor="#505050"
   showgrid="false"
   inkscape:zoom="1.8195837"
   inkscape:cx="201.4197"
   inkscape:cy="53.583685"
   inkscape:window-width="1680"
   inkscape:window-height="997"
   inkscape:window-x="0"
   inkscape:window-y="25"
   inkscape:window-maximized="1"
   inkscape:current-layer="Vrstva_1" />
<style
   type="text/css"
   id="style132">
	.st0{fill:#FFFFFF;}
</style>
<g
   id="g152"
   transform="translate(-21.7,-11.6)">
	<g
   id="g148">
		<path
   class="st0"
   d="m 41.7,26.9 c 0.6,-0.8 1.4,-1.2 2.5,-1.2 h 7.5 v -12 H 42.3 C 37.4,13.7 33.8,15 31.4,17.5 29,20 27.8,23.9 27.8,29 v 7.9 H 21.7 V 48 h 6.1 v 46.7 h 13 V 48 H 51.5 V 36.8 H 40.8 V 30 c 0,-1.3 0.3,-2.3 0.9,-3.1 z"
   id="path134" />
		<path
   class="st0"
   d="m 136.8,42.1 c -3.4,-4.1 -8.2,-6.2 -14.4,-6.2 -3.6,0 -6.7,0.9 -9.4,2.8 -2.1,1.5 -4,3.5 -5.5,6.1 v -8 h -13 v 57.8 h 13 V 58.8 c 0,-3.3 0.9,-5.8 2.7,-7.6 1.8,-1.8 4.4,-2.7 7.7,-2.7 3.5,0 6.1,1 8,2.9 1.9,2 2.9,4.7 2.9,8.2 v 35 h 13 V 59.5 c 0.1,-7.4 -1.6,-13.2 -5,-17.4 z"
   id="path136" />
		<path
   class="st0"
   d="m 235.7,47.1 c -1.5,-3.6 -3.8,-6.4 -6.7,-8.3 -3,-1.9 -6.5,-2.8 -10.7,-2.8 -3.6,0 -6.9,1 -9.8,3.1 -2.8,1.9 -5.1,4.7 -6.9,8.2 0,0 0,-0.1 0,-0.1 -1.5,-3.6 -3.7,-6.4 -6.6,-8.3 -2.9,-1.9 -6.4,-2.8 -10.4,-2.8 -3.5,0 -6.6,0.9 -9.3,2.8 -2.2,1.5 -4,3.5 -5.6,6.1 v -8 h -13 v 57.8 h 13 v -36 c 0,-3.3 0.9,-5.8 2.7,-7.6 1.8,-1.8 4.4,-2.7 7.7,-2.7 3.4,0 6.1,1 7.9,3.1 1.9,2.1 2.8,5 2.8,8.8 v 34.3 h 13 V 60.3 c 0,-0.2 0,-0.3 0,-0.5 v 0.1 c 0,-3.6 0.9,-6.5 2.7,-8.4 1.8,-2 4.3,-3 7.6,-3 3.5,0 6.1,1 8,3.1 1.9,2.1 2.9,5 2.9,8.8 v 34.3 h 13 V 60.3 c 0,-5.1 -0.8,-9.5 -2.3,-13.2 z"
   id="path138" />
		<path
   class="st0"
   d="m 294.7,45.9 c -1.8,-3.2 -4.5,-5.7 -8,-7.3 -3.5,-1.7 -7.7,-2.5 -12.6,-2.5 -4.5,0 -8.6,0.7 -12.2,2.2 -3.6,1.5 -6.6,3.5 -8.9,6.2 l 8.8,7.2 c 1.7,-1.3 3.6,-2.2 5.8,-2.9 2.2,-0.7 4.4,-1.1 6.6,-1.1 3.5,0 6.2,0.9 8.2,2.7 1.9,1.8 2.9,4.4 2.9,7.7 v 2.4 h -15.1 c -6.7,0 -11.7,1.4 -15,4.3 -3.3,2.9 -5,7.1 -5,12.9 0,6 1.7,10.5 5,13.4 3.3,3 8.4,4.4 15.1,4.4 2.6,0 5,-0.3 7.2,-0.9 2.2,-0.6 4.1,-1.5 5.6,-2.7 0.9,-0.7 1.6,-1.4 2.2,-2.3 v 5 h 12.1 V 57.5 c 0,-4.5 -0.9,-8.4 -2.7,-11.6 z m -12.5,37.6 c -2.1,0.9 -5.2,1.4 -9.5,1.4 -3.5,0 -6.2,-0.6 -7.9,-1.8 -1.7,-1.2 -2.6,-3 -2.6,-5.5 0,-2.3 0.7,-4.1 2,-5.2 1.3,-1.2 3.3,-1.7 6,-1.7 h 15 v 8.5 c 0.1,1.9 -0.9,3.4 -3,4.3 z"
   id="path140" />
		<path
   class="st0"
   d="m 357.1,47.1 c -1.5,-3.6 -3.7,-6.4 -6.7,-8.3 -2.9,-1.9 -6.4,-2.8 -10.5,-2.8 -3.3,0 -6.3,0.9 -9,2.8 -2.1,1.4 -3.9,3.4 -5.4,5.8 v -7.7 h -13 v 81.3 h 13 v -31 c 1.2,2.4 2.9,4.3 5,5.7 2.6,1.7 5.6,2.6 9.1,2.6 4.2,0 7.7,-0.9 10.7,-2.8 3,-1.9 5.2,-4.6 6.8,-8.2 1.6,-3.6 2.3,-7.9 2.3,-13 V 60.3 c 0,-5.1 -0.8,-9.5 -2.3,-13.2 z m -10.8,24.3 c 0,3.9 -0.9,6.8 -2.8,9 -1.9,2.1 -4.5,3.2 -7.9,3.2 -2.2,0 -4,-0.4 -5.5,-1.3 -1.5,-0.8 -2.7,-2 -3.5,-3.6 -0.8,-1.6 -1.2,-3.5 -1.2,-5.7 V 58.4 c 0,-2.2 0.4,-4.1 1.2,-5.7 0.8,-1.6 2,-2.8 3.5,-3.6 1.5,-0.8 3.4,-1.2 5.5,-1.2 3.4,0 6,1.1 7.9,3.3 1.9,2.2 2.8,5.2 2.8,9.2 z"
   id="path142" />
		<rect
   x="64.599998"
   y="36.799999"
   class="st0"
   width="13"
   height="57.799999"
   id="rect144" />
		<circle
   class="st0"
   cx="71.099998"
   cy="20.200001"
   r="8.3000002"
   id="circle146" />
	</g>
	<path
   class="st0"
   d="m 479.2,11.6 -11.8,2.5 c -4.7,1 -9.1,1.9 -18.3,1.9 -9.1,0 -13.6,-0.9 -18.3,-1.9 -5.1,-1.1 -10.3,-2.2 -20.7,-2.2 -10.4,0 -15.6,1.1 -20.7,2.2 l -4.6,1 v 99.5 h 11.7 v -37 c 3.4,-0.6 7.5,-1 13.7,-1 9.1,0 13.6,0.9 18.3,1.9 5.1,1.1 10.3,2.2 20.7,2.2 10.4,0 15.6,-1.1 20.7,-2.2 L 477.2,76.9 462,46.3 Z M 449.1,69 c -9.1,0 -13.6,-0.9 -18.3,-1.9 -5.1,-1.1 -10.3,-2.2 -20.7,-2.2 -5.9,0 -10.2,0.4 -13.7,0.9 V 24.6 c 3.4,-0.6 7.5,-1 13.7,-1 9.1,0 13.6,0.9 18.3,1.9 5.1,1.1 10.3,2.2 20.7,2.2 3.6,0 6.7,-0.1 9.3,-0.4 l -9.4,19 11,22.1 c -2.9,0.3 -6.3,0.6 -10.9,0.6 z"
   id="path150" />
</g>
</svg>
