<?xml version="1.0" encoding="UTF-8" standalone="no"?>
<!-- Created with Inkscape (http://www.inkscape.org/) -->

<svg
   version="1.1"
   id="svg687"
   width="274.00092"
   height="104.791"
   viewBox="0 0 274.00091 104.791"
   sodipodi:docname="logo-text.svg"
   inkscape:version="1.2 (dc2aeda, 2022-05-15)"
   xmlns:inkscape="http://www.inkscape.org/namespaces/inkscape"
   xmlns:sodipodi="http://sodipodi.sourceforge.net/DTD/sodipodi-0.dtd"
   xmlns="http://www.w3.org/2000/svg"
   xmlns:svg="http://www.w3.org/2000/svg">
  <defs
     id="defs691">
    <clipPath
       clipPathUnits="userSpaceOnUse"
       id="clipPath703">
      <path
         d="M 0,800 H 1280 V 0 H 0 Z"
         id="path701" />
    </clipPath>
  </defs>
  <sodipodi:namedview
     id="namedview689"
     pagecolor="#505050"
     bordercolor="#eeeeee"
     borderopacity="1"
     inkscape:showpageshadow="0"
     inkscape:pageopacity="0"
     inkscape:pagecheckerboard="0"
     inkscape:deskcolor="#505050"
     showgrid="false"
     inkscape:zoom="0.87627789"
     inkscape:cx="390.28715"
     inkscape:cy="102.13655"
     inkscape:window-width="1680"
     inkscape:window-height="997"
     inkscape:window-x="0"
     inkscape:window-y="25"
     inkscape:window-maximized="1"
     inkscape:current-layer="g695">
    <inkscape:page
       x="0"
       y="0"
       id="page693"
       width="274.00092"
       height="104.791" />
  </sodipodi:namedview>
  <g
     id="g695"
     inkscape:groupmode="layer"
     inkscape:label="Page 1"
     transform="matrix(1.3333333,0,0,-1.3333333,-559.38744,646.37278)">
    <g
       id="g697"
       transform="matrix(0.46219661,0,0,0.46219661,225.63035,260.71611)">
      <g
         id="g699"
         clip-path="url(#clipPath703)">
        <g
           id="g705"
           transform="translate(430.0415,314.7367)">
          <path
             d="m 0,0 c -3.414,0 -5.943,0.899 -7.589,2.7 -1.644,1.8 -2.468,4.604 -2.468,8.411 0,7.367 3.373,11.05 10.119,11.05 0.704,0 1.392,-0.052 2.064,-0.155 0.673,-0.104 1.293,-0.238 1.862,-0.403 0.57,-0.166 1.04,-0.363 1.413,-0.59 0.496,-0.29 0.745,-0.579 0.745,-0.869 0,-0.187 -0.073,-0.451 -0.217,-0.791 C 5.783,19.011 5.613,18.711 5.416,18.452 5.22,18.193 5.028,18.064 4.842,18.064 c -0.104,0 -0.341,0.109 -0.714,0.326 -0.372,0.217 -0.89,0.429 -1.552,0.636 -0.662,0.206 -1.489,0.311 -2.482,0.311 -2.319,0 -4.031,-0.663 -5.138,-1.986 -1.106,-1.326 -1.66,-3.415 -1.66,-6.271 0,-2.814 0.548,-4.893 1.644,-6.238 1.097,-1.346 2.784,-2.018 5.06,-2.018 1.056,0 1.945,0.118 2.67,0.357 0.724,0.238 1.304,0.481 1.737,0.729 0.435,0.249 0.725,0.373 0.869,0.373 0.187,0 0.378,-0.13 0.575,-0.388 C 6.048,3.636 6.213,3.347 6.348,3.025 6.482,2.705 6.55,2.482 6.55,2.358 6.55,2.172 6.456,1.976 6.271,1.769 6.084,1.562 5.836,1.375 5.525,1.21 5.132,0.982 4.641,0.78 4.051,0.604 3.461,0.429 2.819,0.284 2.126,0.17 1.433,0.057 0.725,0 0,0"
             style="fill:#28292a;fill-opacity:1;fill-rule:nonzero;stroke:none"
             id="path707" />
        </g>
        <g
           id="g709"
           transform="translate(443.0776,314.9535)">
          <path
             d="m 0,0 c -0.662,0 -0.993,0.342 -0.993,1.024 v 19.679 c 0,0.683 0.331,1.025 0.993,1.025 h 10.863 c 0.455,0 0.683,-0.363 0.683,-1.087 V 20.02 c 0,-0.725 -0.228,-1.086 -0.683,-1.086 H 2.266 v -6.425 h 7.667 c 0.475,0 0.713,-0.363 0.713,-1.087 v -0.62 c 0,-0.725 -0.238,-1.087 -0.713,-1.087 H 2.266 V 2.794 h 8.629 c 0.455,0 0.682,-0.362 0.682,-1.087 V 1.086 C 11.577,0.361 11.35,0 10.895,0 Z"
             style="fill:#28292a;fill-opacity:1;fill-rule:nonzero;stroke:none"
             id="path711" />
        </g>
        <g
           id="g713"
           transform="translate(465.4888,314.7367)">
          <path
             d="m 0,0 c -1.387,0 -2.603,0.16 -3.647,0.48 -1.045,0.321 -1.827,0.668 -2.344,1.041 -0.435,0.31 -0.652,0.599 -0.652,0.869 0,0.206 0.078,0.465 0.233,0.775 0.155,0.311 0.342,0.585 0.558,0.823 0.218,0.238 0.389,0.357 0.513,0.357 0.082,0 0.181,-0.027 0.295,-0.077 0.113,-0.052 0.253,-0.13 0.419,-0.234 0.413,-0.227 0.993,-0.486 1.738,-0.775 0.744,-0.29 1.645,-0.435 2.7,-0.435 0.683,0 1.309,0.124 1.878,0.372 0.569,0.248 1.025,0.621 1.366,1.117 0.341,0.498 0.512,1.087 0.512,1.77 0,0.786 -0.228,1.412 -0.683,1.878 -0.455,0.466 -1.039,0.858 -1.753,1.18 -0.714,0.32 -1.475,0.646 -2.281,0.977 -0.622,0.248 -1.238,0.528 -1.848,0.838 -0.61,0.311 -1.158,0.688 -1.645,1.133 -0.486,0.445 -0.875,1.004 -1.164,1.677 -0.29,0.672 -0.434,1.505 -0.434,2.498 0,1.22 0.304,2.27 0.916,3.15 0.609,0.88 1.448,1.557 2.513,2.033 1.066,0.476 2.261,0.714 3.585,0.714 0.518,0 1.061,-0.047 1.63,-0.14 0.569,-0.092 1.113,-0.222 1.629,-0.387 0.518,-0.166 0.942,-0.363 1.274,-0.59 0.413,-0.27 0.62,-0.559 0.62,-0.869 0,-0.166 -0.068,-0.409 -0.201,-0.73 C 5.592,19.124 5.432,18.845 5.245,18.607 5.059,18.369 4.893,18.25 4.748,18.25 c -0.082,0 -0.196,0.041 -0.341,0.124 -0.145,0.083 -0.331,0.176 -0.558,0.279 -0.311,0.145 -0.709,0.295 -1.196,0.451 -0.486,0.155 -1.091,0.233 -1.815,0.233 -0.766,0 -1.428,-0.124 -1.986,-0.373 -0.56,-0.248 -0.984,-0.601 -1.274,-1.055 -0.29,-0.456 -0.434,-0.993 -0.434,-1.614 0,-0.704 0.186,-1.263 0.559,-1.676 0.372,-0.415 0.859,-0.756 1.458,-1.024 0.601,-0.27 1.252,-0.549 1.956,-0.838 C 1.8,12.487 2.482,12.192 3.165,11.872 3.849,11.551 4.474,11.152 5.043,10.677 5.612,10.2 6.067,9.606 6.409,8.893 6.75,8.179 6.921,7.294 6.921,6.238 6.921,5.225 6.75,4.329 6.409,3.554 6.067,2.777 5.587,2.126 4.966,1.598 4.345,1.07 3.615,0.672 2.777,0.403 1.939,0.135 1.013,0 0,0"
             style="fill:#28292a;fill-opacity:1;fill-rule:nonzero;stroke:none"
             id="path715" />
        </g>
        <g
           id="g717"
           transform="translate(483.3354,314.891)">
          <path
             d="m 0,0 c -0.931,0 -1.396,0.259 -1.396,0.776 v 18.22 h -5.711 c -0.456,0 -0.684,0.361 -0.684,1.086 v 0.621 c 0,0.725 0.228,1.087 0.684,1.087 H 7.512 c 0.454,0 0.682,-0.362 0.682,-1.087 v -0.621 c 0,-0.725 -0.228,-1.086 -0.682,-1.086 H 1.862 V 0.776 C 1.862,0.259 1.396,0 0.466,0 Z"
             style="fill:#28292a;fill-opacity:1;fill-rule:nonzero;stroke:none"
             id="path719" />
        </g>
        <g
           id="g721"
           transform="translate(498.606,322.9926)">
          <path
             d="M 0,0 H 6.705 L 3.818,8.287 C 3.735,8.577 3.663,8.882 3.601,9.203 3.539,9.523 3.477,9.828 3.415,10.118 H 3.353 C 3.29,9.828 3.223,9.523 3.15,9.203 3.078,8.882 2.99,8.577 2.887,8.287 Z m -4.345,-8.102 c -0.993,0 -1.49,0.187 -1.49,0.56 0,0.082 0.01,0.159 0.031,0.232 0.021,0.073 0.041,0.15 0.062,0.233 l 7.232,20.3 c 0.124,0.351 0.579,0.527 1.365,0.527 h 1.087 c 0.807,0 1.273,-0.176 1.397,-0.527 l 7.201,-20.3 c 0.063,-0.166 0.093,-0.32 0.093,-0.465 0,-0.373 -0.465,-0.56 -1.397,-0.56 h -0.527 c -0.353,0 -0.652,0.042 -0.9,0.125 -0.248,0.082 -0.404,0.217 -0.466,0.404 l -1.676,4.749 h -8.66 L -2.638,-7.573 C -2.7,-7.76 -2.851,-7.895 -3.088,-7.977 -3.326,-8.06 -3.601,-8.102 -3.91,-8.102 Z"
             style="fill:#28292a;fill-opacity:1;fill-rule:nonzero;stroke:none"
             id="path723" />
        </g>
        <g
           id="g725"
           transform="translate(526.5103,314.891)">
          <path
             d="m 0,0 c -0.932,0 -1.396,0.259 -1.396,0.776 v 20.3 c 0,0.517 0.464,0.776 1.396,0.776 h 0.466 c 0.93,0 1.396,-0.259 1.396,-0.776 v -9.187 h 0.124 l 7.046,9.497 c 0.145,0.166 0.377,0.284 0.698,0.357 0.321,0.072 0.667,0.109 1.041,0.109 h 0.62 c 0.828,0 1.242,-0.145 1.242,-0.435 0,-0.187 -0.094,-0.394 -0.279,-0.621 L 5.028,11.236 13.781,0.994 C 13.946,0.766 14.029,0.579 14.029,0.435 14.029,0.145 13.543,0 12.57,0 h -0.745 c -0.351,0 -0.687,0.021 -1.009,0.062 -0.32,0.042 -0.563,0.176 -0.729,0.404 l -8.101,9.84 H 1.862 V 0.776 C 1.862,0.259 1.396,0 0.466,0 Z"
             style="fill:#28292a;fill-opacity:1;fill-rule:nonzero;stroke:none"
             id="path727" />
        </g>
        <g
           id="g729"
           transform="translate(555.2515,314.891)">
          <path
             d="m 0,0 c -0.931,0 -1.396,0.259 -1.396,0.776 v 19.99 c 0,0.682 0.331,1.024 0.993,1.024 h 9.901 c 0.455,0 0.683,-0.362 0.683,-1.087 v -0.621 c 0,-0.725 -0.228,-1.086 -0.683,-1.086 H 1.862 v -7.139 h 7.17 c 0.455,0 0.684,-0.362 0.684,-1.086 V 10.15 C 9.716,9.426 9.487,9.063 9.032,9.063 H 1.862 V 0.776 C 1.862,0.259 1.387,0 0.435,0 Z"
             style="fill:#28292a;fill-opacity:1;fill-rule:nonzero;stroke:none"
             id="path731" />
        </g>
        <g
           id="g733"
           transform="translate(572.4468,314.891)">
          <path
             d="m 0,0 c -0.952,0 -1.428,0.259 -1.428,0.776 v 20.3 c 0,0.517 0.476,0.776 1.428,0.776 h 0.466 c 0.93,0 1.396,-0.259 1.396,-0.776 V 0.776 C 1.862,0.259 1.396,0 0.466,0 Z"
             style="fill:#28292a;fill-opacity:1;fill-rule:nonzero;stroke:none"
             id="path735" />
        </g>
        <g
           id="g737"
           transform="translate(582.7817,314.891)">
          <path
             d="m 0,0 c -0.932,0 -1.396,0.259 -1.396,0.776 v 20.3 c 0,0.517 0.464,0.776 1.396,0.776 h 0.807 c 0.393,0 0.703,-0.047 0.931,-0.14 0.228,-0.093 0.424,-0.264 0.59,-0.512 L 11.36,7.512 c 0.206,-0.311 0.393,-0.616 0.559,-0.916 0.165,-0.3 0.32,-0.616 0.466,-0.947 l 0.124,0.032 c -0.022,0.351 -0.037,0.677 -0.047,0.977 -0.011,0.3 -0.016,0.678 -0.016,1.133 v 13.285 c 0,0.517 0.476,0.776 1.428,0.776 h 0.373 c 0.931,0 1.397,-0.259 1.397,-0.776 V 0.776 C 15.644,0.259 15.178,0 14.247,0 h -0.745 c -0.331,0 -0.606,0.042 -0.823,0.125 -0.217,0.082 -0.388,0.217 -0.512,0.403 l -9.28,14.03 c -0.207,0.31 -0.389,0.61 -0.543,0.9 -0.156,0.289 -0.317,0.6 -0.482,0.931 L 1.738,16.357 C 1.779,16.006 1.8,15.68 1.8,15.38 V 14.247 0.776 C 1.8,0.259 1.324,0 0.372,0 Z"
             style="fill:#28292a;fill-opacity:1;fill-rule:nonzero;stroke:none"
             id="path739" />
        </g>
        <g
           id="g741"
           transform="translate(608.853,322.9926)">
          <path
             d="M 0,0 H 6.705 L 3.818,8.287 C 3.735,8.577 3.663,8.882 3.601,9.203 3.539,9.523 3.477,9.828 3.415,10.118 H 3.353 C 3.29,9.828 3.223,9.523 3.15,9.203 3.078,8.882 2.99,8.577 2.887,8.287 Z m -4.345,-8.102 c -0.993,0 -1.49,0.187 -1.49,0.56 0,0.082 0.01,0.159 0.031,0.232 0.021,0.073 0.041,0.15 0.062,0.233 l 7.232,20.3 c 0.124,0.351 0.579,0.527 1.365,0.527 h 1.087 c 0.807,0 1.273,-0.176 1.397,-0.527 l 7.201,-20.3 c 0.063,-0.166 0.093,-0.32 0.093,-0.465 0,-0.373 -0.465,-0.56 -1.397,-0.56 h -0.527 c -0.353,0 -0.652,0.042 -0.9,0.125 -0.248,0.082 -0.404,0.217 -0.466,0.404 l -1.676,4.749 h -8.66 L -2.638,-7.573 C -2.7,-7.76 -2.851,-7.895 -3.088,-7.977 -3.326,-8.06 -3.601,-8.102 -3.91,-8.102 Z"
             style="fill:#28292a;fill-opacity:1;fill-rule:nonzero;stroke:none"
             id="path743" />
        </g>
        <g
           id="g745"
           transform="translate(627.4771,314.891)">
          <path
             d="m 0,0 c -0.932,0 -1.396,0.259 -1.396,0.776 v 20.3 c 0,0.517 0.464,0.776 1.396,0.776 h 0.807 c 0.393,0 0.703,-0.047 0.931,-0.14 0.228,-0.093 0.424,-0.264 0.59,-0.512 L 11.36,7.512 c 0.206,-0.311 0.393,-0.616 0.559,-0.916 0.165,-0.3 0.32,-0.616 0.466,-0.947 l 0.124,0.032 c -0.022,0.351 -0.037,0.677 -0.047,0.977 -0.011,0.3 -0.016,0.678 -0.016,1.133 v 13.285 c 0,0.517 0.476,0.776 1.428,0.776 h 0.373 c 0.93,0 1.396,-0.259 1.396,-0.776 V 0.776 C 15.643,0.259 15.177,0 14.247,0 h -0.745 c -0.331,0 -0.606,0.042 -0.823,0.125 -0.217,0.082 -0.388,0.217 -0.512,0.403 l -9.28,14.03 c -0.207,0.31 -0.389,0.61 -0.543,0.9 -0.156,0.289 -0.317,0.6 -0.482,0.931 L 1.738,16.357 C 1.779,16.006 1.8,15.68 1.8,15.38 V 14.247 0.776 C 1.8,0.259 1.324,0 0.372,0 Z"
             style="fill:#28292a;fill-opacity:1;fill-rule:nonzero;stroke:none"
             id="path747" />
        </g>
        <g
           id="g749"
           transform="translate(658.3906,338.2641)">
          <path
             d="m 0,0 c -0.559,0 -0.968,0.046 -1.227,0.14 -0.258,0.092 -0.522,0.304 -0.791,0.635 l -1.366,1.739 c -0.166,0.227 -0.274,0.382 -0.326,0.465 -0.052,0.083 -0.077,0.166 -0.077,0.249 0,0.124 0.062,0.216 0.186,0.279 0.124,0.062 0.352,0.093 0.683,0.093 0.372,0 0.672,-0.026 0.9,-0.078 0.228,-0.051 0.456,-0.17 0.683,-0.357 l 1.738,-1.272 1.8,1.303 C 2.41,3.362 2.622,3.471 2.84,3.522 3.057,3.574 3.341,3.6 3.693,3.6 4.045,3.6 4.277,3.569 4.392,3.507 4.505,3.444 4.562,3.352 4.562,3.228 4.562,3.145 4.536,3.062 4.484,2.979 4.433,2.896 4.314,2.73 4.128,2.482 L 2.793,0.775 C 2.545,0.444 2.286,0.232 2.018,0.14 1.748,0.046 1.345,0 0.807,0 Z m 0.775,-23.527 c -3.414,0 -5.943,0.899 -7.588,2.7 -1.645,1.8 -2.468,4.603 -2.468,8.411 0,7.366 3.373,11.05 10.119,11.05 0.703,0 1.391,-0.052 2.063,-0.155 0.673,-0.104 1.293,-0.239 1.863,-0.404 0.569,-0.166 1.04,-0.362 1.413,-0.59 0.496,-0.29 0.744,-0.579 0.744,-0.869 0,-0.186 -0.072,-0.45 -0.217,-0.791 -0.145,-0.342 -0.315,-0.641 -0.513,-0.9 -0.196,-0.259 -0.387,-0.388 -0.574,-0.388 -0.103,0 -0.341,0.109 -0.714,0.325 -0.372,0.218 -0.889,0.43 -1.551,0.637 -0.663,0.206 -1.49,0.311 -2.483,0.311 -2.318,0 -4.03,-0.664 -5.138,-1.987 -1.106,-1.325 -1.66,-3.415 -1.66,-6.27 0,-2.815 0.548,-4.894 1.645,-6.239 1.096,-1.345 2.783,-2.017 5.059,-2.017 1.056,0 1.946,0.118 2.67,0.356 0.724,0.239 1.304,0.482 1.738,0.73 0.434,0.249 0.724,0.373 0.869,0.373 0.186,0 0.378,-0.13 0.574,-0.389 0.197,-0.259 0.362,-0.548 0.497,-0.869 0.135,-0.32 0.202,-0.543 0.202,-0.667 0,-0.186 -0.094,-0.383 -0.279,-0.59 -0.187,-0.207 -0.435,-0.393 -0.745,-0.558 -0.394,-0.228 -0.885,-0.43 -1.475,-0.606 -0.59,-0.176 -1.231,-0.32 -1.925,-0.434 -0.693,-0.114 -1.401,-0.17 -2.126,-0.17"
             style="fill:#28292a;fill-opacity:1;fill-rule:nonzero;stroke:none"
             id="path751" />
        </g>
        <g
           id="g753"
           transform="translate(672.3574,314.891)">
          <path
             d="m 0,0 c -0.932,0 -1.396,0.259 -1.396,0.776 v 20.3 c 0,0.517 0.464,0.776 1.396,0.776 h 0.807 c 0.393,0 0.703,-0.047 0.931,-0.14 0.228,-0.093 0.424,-0.264 0.59,-0.512 L 11.36,7.512 c 0.206,-0.311 0.393,-0.616 0.559,-0.916 0.165,-0.3 0.32,-0.616 0.466,-0.947 l 0.124,0.032 c -0.022,0.351 -0.037,0.677 -0.047,0.977 -0.011,0.3 -0.016,0.678 -0.016,1.133 v 13.285 c 0,0.517 0.476,0.776 1.428,0.776 h 0.373 c 0.931,0 1.397,-0.259 1.397,-0.776 V 0.776 C 15.644,0.259 15.178,0 14.247,0 h -0.745 c -0.331,0 -0.606,0.042 -0.823,0.125 -0.217,0.082 -0.388,0.217 -0.512,0.403 l -9.28,14.03 c -0.207,0.31 -0.389,0.61 -0.543,0.9 -0.156,0.289 -0.317,0.6 -0.482,0.931 L 1.738,16.357 C 1.779,16.006 1.8,15.68 1.8,15.38 V 14.247 0.776 C 1.8,0.259 1.324,0 0.372,0 Z"
             style="fill:#28292a;fill-opacity:1;fill-rule:nonzero;stroke:none"
             id="path755" />
        </g>
        <g
           id="g757"
           transform="translate(696.4746,314.891)">
          <path
             d="m 0,0 c -0.952,0 -1.428,0.259 -1.428,0.776 v 20.3 c 0,0.517 0.476,0.776 1.428,0.776 h 0.466 c 0.93,0 1.396,-0.259 1.396,-0.776 V 0.776 C 1.862,0.259 1.396,0 0.466,0 Z m -1.583,23.373 c -0.601,0 -0.9,0.134 -0.9,0.403 0,0.082 0.026,0.175 0.078,0.28 0.051,0.103 0.139,0.216 0.263,0.34 l 1.676,1.801 c 0.29,0.311 0.606,0.517 0.947,0.62 0.341,0.104 0.843,0.156 1.505,0.156 0.538,0 0.967,-0.046 1.288,-0.14 0.321,-0.093 0.482,-0.232 0.482,-0.419 0,-0.166 -0.073,-0.325 -0.218,-0.48 C 3.394,25.778 3.083,25.545 2.607,25.235 L 0.683,24.024 c -0.414,-0.269 -0.766,-0.445 -1.055,-0.527 -0.29,-0.083 -0.694,-0.124 -1.211,-0.124"
             style="fill:#28292a;fill-opacity:1;fill-rule:nonzero;stroke:none"
             id="path759" />
        </g>
        <g
           id="g761"
           transform="translate(719.5664,314.7367)">
          <path
             d="m 0,0 c -1.387,0 -2.603,0.16 -3.647,0.48 -1.045,0.321 -1.827,0.668 -2.344,1.041 -0.435,0.31 -0.652,0.599 -0.652,0.869 0,0.206 0.078,0.465 0.233,0.775 0.155,0.311 0.342,0.585 0.558,0.823 0.218,0.238 0.389,0.357 0.513,0.357 0.082,0 0.181,-0.027 0.295,-0.077 0.113,-0.052 0.253,-0.13 0.419,-0.234 0.413,-0.227 0.993,-0.486 1.738,-0.775 0.744,-0.29 1.645,-0.435 2.7,-0.435 0.683,0 1.309,0.124 1.878,0.372 0.569,0.248 1.025,0.621 1.366,1.117 0.341,0.498 0.512,1.087 0.512,1.77 0,0.786 -0.228,1.412 -0.683,1.878 -0.455,0.466 -1.039,0.858 -1.753,1.18 -0.714,0.32 -1.475,0.646 -2.281,0.977 -0.622,0.248 -1.238,0.528 -1.848,0.838 -0.61,0.311 -1.158,0.688 -1.645,1.133 -0.486,0.445 -0.875,1.004 -1.164,1.677 -0.29,0.672 -0.434,1.505 -0.434,2.498 0,1.22 0.304,2.27 0.916,3.15 0.609,0.88 1.448,1.557 2.513,2.033 1.066,0.476 2.261,0.714 3.585,0.714 0.518,0 1.061,-0.047 1.63,-0.14 0.569,-0.092 1.113,-0.222 1.629,-0.387 0.518,-0.166 0.942,-0.363 1.274,-0.59 0.413,-0.27 0.62,-0.559 0.62,-0.869 0,-0.166 -0.068,-0.409 -0.201,-0.73 C 5.592,19.124 5.432,18.845 5.245,18.607 5.059,18.369 4.893,18.25 4.748,18.25 c -0.082,0 -0.196,0.041 -0.341,0.124 -0.145,0.083 -0.331,0.176 -0.558,0.279 -0.311,0.145 -0.709,0.295 -1.196,0.451 -0.486,0.155 -1.091,0.233 -1.815,0.233 -0.766,0 -1.428,-0.124 -1.986,-0.373 -0.56,-0.248 -0.984,-0.601 -1.274,-1.055 -0.29,-0.456 -0.434,-0.993 -0.434,-1.614 0,-0.704 0.186,-1.263 0.559,-1.676 0.372,-0.415 0.859,-0.756 1.458,-1.024 0.601,-0.27 1.252,-0.549 1.956,-0.838 C 1.8,12.487 2.482,12.192 3.165,11.872 3.849,11.551 4.474,11.152 5.043,10.677 5.612,10.2 6.067,9.606 6.409,8.893 6.75,8.179 6.921,7.294 6.921,6.238 6.921,5.225 6.75,4.329 6.409,3.554 6.067,2.777 5.587,2.126 4.966,1.598 4.345,1.07 3.615,0.672 2.777,0.403 1.939,0.135 1.013,0 0,0"
             style="fill:#28292a;fill-opacity:1;fill-rule:nonzero;stroke:none"
             id="path763" />
        </g>
        <g
           id="g765"
           transform="translate(737.4141,314.891)">
          <path
             d="m 0,0 c -0.931,0 -1.396,0.259 -1.396,0.776 v 18.22 h -5.711 c -0.456,0 -0.684,0.361 -0.684,1.086 v 0.621 c 0,0.725 0.228,1.087 0.684,1.087 H 7.512 c 0.454,0 0.682,-0.362 0.682,-1.087 v -0.621 c 0,-0.725 -0.228,-1.086 -0.682,-1.086 H 1.862 V 0.776 C 1.862,0.259 1.396,0 0.466,0 Z"
             style="fill:#28292a;fill-opacity:1;fill-rule:nonzero;stroke:none"
             id="path767" />
        </g>
        <g
           id="g769"
           transform="translate(752.6846,322.9926)">
          <path
             d="M 0,0 H 6.705 L 3.818,8.287 C 3.735,8.577 3.663,8.882 3.601,9.203 3.539,9.523 3.477,9.828 3.415,10.118 H 3.353 C 3.29,9.828 3.223,9.523 3.15,9.203 3.078,8.882 2.99,8.577 2.887,8.287 Z m -4.345,-8.102 c -0.993,0 -1.49,0.187 -1.49,0.56 0,0.082 0.01,0.159 0.031,0.232 0.021,0.073 0.041,0.15 0.062,0.233 l 7.232,20.3 c 0.124,0.351 0.579,0.527 1.365,0.527 h 1.087 c 0.807,0 1.273,-0.176 1.397,-0.527 l 7.201,-20.3 c 0.063,-0.166 0.093,-0.32 0.093,-0.465 0,-0.373 -0.465,-0.56 -1.397,-0.56 h -0.527 c -0.353,0 -0.652,0.042 -0.9,0.125 -0.248,0.082 -0.404,0.217 -0.466,0.404 l -1.676,4.749 h -8.66 L -2.638,-7.573 C -2.7,-7.76 -2.851,-7.895 -3.088,-7.977 -3.326,-8.06 -3.601,-8.102 -3.91,-8.102 Z"
             style="fill:#28292a;fill-opacity:1;fill-rule:nonzero;stroke:none"
             id="path771" />
        </g>
        <g
           id="g773"
           transform="translate(773.3867,317.7475)">
          <path
             d="M 0,0 H 4.129 C 5.391,0 6.358,0.325 7.03,0.978 7.703,1.629 8.039,2.514 8.039,3.631 8.039,4.687 7.667,5.504 6.922,6.083 6.177,6.662 5.07,6.952 3.601,6.952 H 0 Z m 0,9.746 h 3.197 c 1.18,0 2.131,0.32 2.856,0.962 0.724,0.641 1.087,1.417 1.087,2.328 0,1.055 -0.317,1.836 -0.948,2.343 -0.63,0.507 -1.65,0.761 -3.056,0.761 H 0 Z m -2.266,-12.54 c -0.662,0 -0.993,0.342 -0.993,1.024 v 19.679 c 0,0.683 0.331,1.025 0.993,1.025 h 5.711 c 2.401,0 4.175,-0.508 5.324,-1.522 1.148,-1.014 1.722,-2.339 1.722,-3.973 0,-0.682 -0.155,-1.35 -0.466,-2.001 C 9.716,10.785 9.302,10.216 8.784,9.73 8.267,9.244 7.708,8.907 7.108,8.722 V 8.598 C 7.232,8.576 7.46,8.499 7.791,8.364 8.122,8.229 8.494,8.033 8.908,7.774 9.322,7.516 9.721,7.189 10.104,6.797 10.486,6.403 10.802,5.933 11.05,5.385 11.299,4.836 11.423,4.2 11.423,3.476 11.423,1.345 10.74,-0.233 9.374,-1.258 8.009,-2.282 6.021,-2.794 3.415,-2.794 Z"
             style="fill:#28292a;fill-opacity:1;fill-rule:nonzero;stroke:none"
             id="path775" />
        </g>
        <g
           id="g777"
           transform="translate(791.5137,314.891)">
          <path
             d="m 0,0 c -0.952,0 -1.428,0.259 -1.428,0.776 v 20.3 c 0,0.517 0.476,0.776 1.428,0.776 h 0.466 c 0.93,0 1.396,-0.259 1.396,-0.776 V 0.776 C 1.862,0.259 1.396,0 0.466,0 Z"
             style="fill:#28292a;fill-opacity:1;fill-rule:nonzero;stroke:none"
             id="path779" />
        </g>
        <g
           id="g781"
           transform="translate(801.6621,314.9535)">
          <path
             d="m 0,0 c -0.662,0 -0.993,0.342 -0.993,1.024 v 19.99 c 0,0.516 0.466,0.775 1.396,0.775 h 0.435 c 0.952,0 1.428,-0.259 1.428,-0.775 V 2.794 h 8.039 c 0.476,0 0.714,-0.362 0.714,-1.087 V 1.086 C 11.019,0.361 10.781,0 10.305,0 Z"
             style="fill:#28292a;fill-opacity:1;fill-rule:nonzero;stroke:none"
             id="path783" />
        </g>
        <g
           id="g785"
           transform="translate(818.0498,314.891)">
          <path
             d="m 0,0 c -0.952,0 -1.428,0.259 -1.428,0.776 v 20.3 c 0,0.517 0.476,0.776 1.428,0.776 h 0.466 c 0.93,0 1.396,-0.259 1.396,-0.776 V 0.776 C 1.862,0.259 1.396,0 0.466,0 Z"
             style="fill:#28292a;fill-opacity:1;fill-rule:nonzero;stroke:none"
             id="path787" />
        </g>
        <g
           id="g789"
           transform="translate(832.6689,314.891)">
          <path
             d="m 0,0 c -0.931,0 -1.396,0.259 -1.396,0.776 v 18.22 h -5.711 c -0.456,0 -0.684,0.361 -0.684,1.086 v 0.621 c 0,0.725 0.228,1.087 0.684,1.087 H 7.512 c 0.454,0 0.682,-0.362 0.682,-1.087 v -0.621 c 0,-0.725 -0.228,-1.086 -0.682,-1.086 H 1.862 V 0.776 C 1.862,0.259 1.396,0 0.466,0 Z"
             style="fill:#28292a;fill-opacity:1;fill-rule:nonzero;stroke:none"
             id="path791" />
        </g>
        <g
           id="g793"
           transform="translate(851.7881,338.2641)">
          <path
             d="m 0,0 c -0.538,0 -0.941,0.046 -1.21,0.14 -0.269,0.092 -0.528,0.304 -0.776,0.635 l -1.397,1.739 c -0.166,0.227 -0.269,0.382 -0.31,0.465 -0.042,0.083 -0.063,0.166 -0.063,0.249 0,0.124 0.063,0.216 0.187,0.279 0.124,0.062 0.351,0.093 0.682,0.093 0.352,0 0.642,-0.026 0.869,-0.078 0.228,-0.051 0.456,-0.17 0.684,-0.357 L 0.403,1.893 2.204,3.196 C 2.432,3.362 2.654,3.471 2.871,3.522 3.089,3.574 3.373,3.6 3.725,3.6 4.056,3.6 4.283,3.569 4.407,3.507 4.532,3.444 4.594,3.352 4.594,3.228 4.594,3.145 4.567,3.062 4.517,2.979 4.465,2.896 4.335,2.73 4.128,2.482 L 2.825,0.775 C 2.556,0.444 2.292,0.232 2.033,0.14 1.774,0.046 1.366,0 0.808,0 Z m -4.842,-23.311 c -0.662,0 -0.993,0.342 -0.993,1.025 v 19.679 c 0,0.682 0.331,1.024 0.993,1.024 H 6.021 c 0.456,0 0.683,-0.362 0.683,-1.087 v -0.621 c 0,-0.725 -0.227,-1.086 -0.683,-1.086 h -8.597 v -6.425 h 7.667 c 0.475,0 0.714,-0.362 0.714,-1.087 v -0.62 c 0,-0.724 -0.239,-1.087 -0.714,-1.087 h -7.667 v -6.921 h 8.629 c 0.455,0 0.682,-0.362 0.682,-1.087 v -0.621 c 0,-0.724 -0.227,-1.086 -0.682,-1.086 z"
             style="fill:#28292a;fill-opacity:1;fill-rule:nonzero;stroke:none"
             id="path795" />
        </g>
        <path
           d="M 859.702,356.591 H 419.541 v 2.794 h 440.161 z"
           style="fill:#28292a;fill-opacity:1;fill-rule:nonzero;stroke:none"
           id="path797" />
        <g
           id="g799"
           transform="translate(438.9676,469.9183)">
          <path
             d="M 0,0 C 0.543,0.793 1.336,1.19 2.382,1.19 H 9.634 V 12.824 H 0.543 c -4.763,0 -8.289,-1.236 -10.58,-3.704 -2.291,-2.472 -3.437,-6.197 -3.437,-11.175 v -7.629 h -5.953 v -10.824 h 5.953 V -65.855 H -0.81 v 45.347 H 9.634 V -9.684 H -0.81 v 6.602 c 0,1.261 0.269,2.289 0.81,3.082"
             style="fill:#28292a;fill-opacity:1;fill-rule:nonzero;stroke:none"
             id="path801" />
        </g>
        <g
           id="g803"
           transform="translate(531.4727,455.0643)">
          <path
             d="m 0,0 c -3.299,3.988 -7.964,5.98 -13.987,5.98 -3.464,0 -6.505,-0.902 -9.119,-2.706 -2.078,-1.433 -3.865,-3.413 -5.385,-5.893 V 5.17 h -12.661 v -56.171 h 12.661 v 34.848 c 0,3.174 0.883,5.638 2.652,7.388 1.769,1.749 4.276,2.622 7.523,2.622 3.353,0 5.959,-0.944 7.82,-2.84 1.856,-1.895 2.785,-4.556 2.785,-7.98 V -51.001 H 4.953 v 34.092 C 4.953,-9.626 3.301,-3.988 0,0"
             style="fill:#28292a;fill-opacity:1;fill-rule:nonzero;stroke:none"
             id="path805" />
        </g>
        <g
           id="g807"
           transform="translate(627.4989,450.2202)">
          <path
             d="m 0,0 c -1.497,3.537 -3.679,6.226 -6.548,8.064 -2.867,1.841 -6.322,2.76 -10.363,2.76 -3.499,0 -6.683,-0.994 -9.55,-2.977 -2.725,-1.884 -4.936,-4.558 -6.668,-7.972 -0.016,0.04 -0.027,0.085 -0.043,0.125 -1.462,3.537 -3.598,6.226 -6.412,8.064 -2.815,1.841 -6.189,2.76 -10.121,2.76 -3.391,0 -6.412,-0.91 -9.064,-2.731 -2.107,-1.45 -3.911,-3.426 -5.437,-5.888 v 7.809 H -76.87 v -56.171 h 12.664 v 34.848 c 0,3.174 0.883,5.638 2.652,7.388 1.766,1.749 4.274,2.622 7.521,2.622 3.32,0 5.88,-0.998 7.684,-3.002 1.804,-2.001 2.706,-4.844 2.706,-8.523 v -33.333 h 12.663 v 33.387 c 0,0.161 -0.016,0.306 -0.017,0.465 l 0.017,-0.085 c 0,3.533 0.865,6.268 2.598,8.197 1.731,1.93 4.184,2.894 7.358,2.894 3.355,0 5.961,-0.998 7.819,-3.002 1.859,-2.001 2.788,-4.844 2.788,-8.523 V -46.157 H 2.247 V -12.77 C 2.247,-7.792 1.497,-3.533 0,0"
             style="fill:#28292a;fill-opacity:1;fill-rule:nonzero;stroke:none"
             id="path809" />
        </g>
        <g
           id="g811"
           transform="translate(672.7094,414.8829)">
          <path
             d="m 0,0 c -2.021,-0.902 -5.086,-1.353 -9.2,-1.353 -3.426,0 -5.98,0.58 -7.656,1.733 -1.677,1.157 -2.516,2.94 -2.516,5.358 0,2.272 0.649,3.967 1.948,5.086 1.298,1.119 3.246,1.679 5.844,1.679 H 3.03 V 4.222 C 3.03,2.309 2.021,0.902 0,0 m 12.148,36.557 c -1.785,3.119 -4.364,5.499 -7.738,7.141 -3.372,1.641 -7.44,2.463 -12.202,2.463 -4.366,0 -8.325,-0.714 -11.879,-2.138 -3.554,-1.424 -6.431,-3.416 -8.63,-5.98 l 8.548,-7.032 c 1.66,1.224 3.538,2.18 5.63,2.865 2.092,0.685 4.238,1.031 6.439,1.031 3.427,0 6.07,-0.885 7.928,-2.652 1.857,-1.77 2.786,-4.259 2.786,-7.47 v -2.381 h -14.664 c -6.494,0 -11.355,-1.386 -14.585,-4.167 -3.228,-2.777 -4.842,-6.945 -4.842,-12.499 0,-5.842 1.622,-10.202 4.869,-13.067 3.247,-2.869 8.135,-4.305 14.666,-4.305 2.525,0 4.851,0.292 6.98,0.868 2.128,0.577 3.951,1.441 5.467,2.598 0.84,0.64 1.534,1.379 2.109,2.197 v -4.849 h 11.797 v 36.093 c 0,4.402 -0.892,8.164 -2.679,11.284"
             style="fill:#28292a;fill-opacity:1;fill-rule:nonzero;stroke:none"
             id="path813" />
        </g>
        <g
           id="g815"
           transform="translate(735.0457,426.6258)">
          <path
             d="m 0,0 c 0,-3.75 -0.902,-6.652 -2.706,-8.711 -1.804,-2.055 -4.347,-3.086 -7.63,-3.086 -2.092,0 -3.877,0.409 -5.357,1.219 -1.479,0.81 -2.606,1.975 -3.383,3.491 -0.775,1.516 -1.163,3.375 -1.163,5.575 v 14.124 c 0,2.163 0.388,4.013 1.163,5.545 0.777,1.533 1.904,2.698 3.383,3.491 1.48,0.794 3.265,1.191 5.357,1.191 3.283,0 5.826,-1.057 7.63,-3.166 C -0.902,17.56 0,14.595 0,10.77 Z m 10.444,23.594 c -1.48,3.537 -3.635,6.227 -6.466,8.064 -2.834,1.842 -6.233,2.761 -10.2,2.761 -3.212,0 -6.135,-0.894 -8.768,-2.677 -2.063,-1.401 -3.806,-3.276 -5.249,-5.595 v 7.461 h -12.662 v -79.009 h 12.662 v 30.076 c 1.192,-2.3 2.782,-4.162 4.817,-5.534 2.489,-1.679 5.448,-2.518 8.874,-2.518 4.04,0 7.496,0.923 10.363,2.76 2.869,1.842 5.059,4.51 6.575,8.01 1.516,3.499 2.274,7.7 2.274,12.607 v 10.824 c 0,4.978 -0.742,9.238 -2.22,12.77"
             style="fill:#28292a;fill-opacity:1;fill-rule:nonzero;stroke:none"
             id="path817" />
        </g>
        <path
           d="m 461.235,404.063 h 12.662 v 56.171 h -12.662 z"
           style="fill:#28292a;fill-opacity:1;fill-rule:nonzero;stroke:none"
           id="path819" />
        <g
           id="g821"
           transform="translate(467.5661,468.3132)">
          <path
             d="m 0,0 c 4.473,0 8.099,3.626 8.099,8.099 0,4.473 -3.626,8.099 -8.099,8.099 -4.473,0 -8.099,-3.626 -8.099,-8.099 C -8.099,3.626 -4.473,0 0,0"
             style="fill:#28292a;fill-opacity:1;fill-rule:nonzero;stroke:none"
             id="path823" />
        </g>
        <g
           id="g825"
           transform="translate(834.9471,428.9946)">
          <path
             d="m 0,0 c -8.874,0 -13.19,0.918 -17.761,1.891 -4.941,1.051 -10.052,2.139 -20.118,2.139 -5.741,0 -9.869,-0.354 -13.275,-0.853 v 39.98 c 3.329,0.577 7.252,1 13.275,1 8.874,0 13.19,-0.919 17.761,-1.891 4.941,-1.052 10.053,-2.14 20.118,-2.14 3.542,0 6.47,0.135 8.993,0.355 L -0.117,22.078 10.523,0.584 C 7.758,0.231 4.453,0 0,0 M 29.211,55.785 17.76,53.348 C 13.192,52.375 8.876,51.457 0,51.457 c -8.874,0 -13.19,0.918 -17.761,1.891 -4.941,1.052 -10.052,2.139 -20.118,2.139 -10.064,0 -15.174,-1.087 -20.119,-2.139 l -4.486,-0.955 v -96.677 h 11.33 V -8.3 c 3.329,0.576 7.251,0.999 13.275,0.999 8.874,0 13.19,-0.918 17.761,-1.89 4.941,-1.052 10.053,-2.139 20.118,-2.139 10.069,0 15.178,1.087 20.12,2.139 l 7.132,1.518 -14.726,29.751 z"
             style="fill:#8ad371;fill-opacity:1;fill-rule:nonzero;stroke:none"
             id="path827" />
        </g>
      </g>
    </g>
  </g>
</svg>
