<?xml version="1.0" encoding="UTF-8" standalone="no"?>
<!-- Generator: Adobe Illustrator 27.0.0, SVG Export Plug-In . SVG Version: 6.00 Build 0)  -->

<svg
   version="1.1"
   id="Vrstva_1"
   x="0px"
   y="0px"
   viewBox="0 0 274.48882 105"
   xml:space="preserve"
   sodipodi:docname="logo-text.svg"
   width="274.48883"
   height="105"
   inkscape:version="1.2 (dc2aeda, 2022-05-15)"
   xmlns:inkscape="http://www.inkscape.org/namespaces/inkscape"
   xmlns:sodipodi="http://sodipodi.sourceforge.net/DTD/sodipodi-0.dtd"
   xmlns="http://www.w3.org/2000/svg"
   xmlns:svg="http://www.w3.org/2000/svg"><defs
   id="defs1266" /><sodipodi:namedview
   id="namedview1264"
   pagecolor="#505050"
   bordercolor="#eeeeee"
   borderopacity="1"
   inkscape:showpageshadow="0"
   inkscape:pageopacity="0"
   inkscape:pagecheckerboard="0"
   inkscape:deskcolor="#505050"
   showgrid="false"
   inkscape:zoom="2.4418365"
   inkscape:cx="220.32597"
   inkscape:cy="84.977024"
   inkscape:window-width="1680"
   inkscape:window-height="997"
   inkscape:window-x="0"
   inkscape:window-y="25"
   inkscape:window-maximized="1"
   inkscape:current-layer="Vrstva_1" />
<style
   type="text/css"
   id="style1191">
	.st0{fill:#333333;}
	.st1{fill:#99D87C;}
</style>
<g
   id="g1239"
   transform="matrix(0.61728395,0,0,0.61728395,-13.782778,-16.728395)">
	<path
   class="st0"
   d="m 32.9,197.1 c -3.4,0 -5.9,-0.9 -7.6,-2.7 -1.6,-1.8 -2.5,-4.6 -2.5,-8.4 0,-7.4 3.4,-11 10.1,-11 0.7,0 1.4,0.1 2.1,0.2 0.7,0.1 1.3,0.2 1.9,0.4 0.6,0.2 1,0.4 1.4,0.6 0.5,0.3 0.7,0.6 0.7,0.9 0,0.2 -0.1,0.5 -0.2,0.8 -0.1,0.3 -0.3,0.6 -0.5,0.9 -0.2,0.3 -0.4,0.4 -0.6,0.4 -0.1,0 -0.3,-0.1 -0.7,-0.3 -0.4,-0.2 -0.9,-0.4 -1.6,-0.6 -0.7,-0.2 -1.5,-0.3 -2.5,-0.3 -2.3,0 -4,0.7 -5.1,2 -1.1,1.3 -1.7,3.4 -1.7,6.3 0,2.8 0.5,4.9 1.6,6.2 1.1,1.3 2.8,2 5.1,2 1.1,0 1.9,-0.1 2.7,-0.4 0.7,-0.2 1.3,-0.5 1.7,-0.7 0.4,-0.2 0.7,-0.4 0.9,-0.4 0.2,0 0.4,0.1 0.6,0.4 0.2,0.3 0.4,0.5 0.5,0.9 0.1,0.3 0.2,0.5 0.2,0.7 0,0.2 -0.1,0.4 -0.3,0.6 -0.2,0.2 -0.4,0.4 -0.7,0.6 -0.4,0.2 -0.9,0.4 -1.5,0.6 -0.6,0.2 -1.2,0.3 -1.9,0.4 -0.7,-0.2 -1.4,-0.1 -2.1,-0.1 z"
   id="path1193" />
	<path
   class="st0"
   d="m 45.9,196.9 c -0.7,0 -1,-0.3 -1,-1 v -19.7 c 0,-0.7 0.3,-1 1,-1 h 10.9 c 0.5,0 0.7,0.4 0.7,1.1 v 0.6 c 0,0.7 -0.2,1.1 -0.7,1.1 h -8.6 v 6.4 h 7.7 c 0.5,0 0.7,0.4 0.7,1.1 v 0.6 c 0,0.7 -0.2,1.1 -0.7,1.1 h -7.7 v 6.9 h 8.6 c 0.5,0 0.7,0.4 0.7,1.1 v 0.6 c 0,0.7 -0.2,1.1 -0.7,1.1 z"
   id="path1195" />
	<path
   class="st0"
   d="m 68.3,197.1 c -1.4,0 -2.6,-0.2 -3.6,-0.5 -1,-0.3 -1.8,-0.7 -2.3,-1 -0.4,-0.3 -0.7,-0.6 -0.7,-0.9 0,-0.2 0.1,-0.5 0.2,-0.8 0.2,-0.3 0.3,-0.6 0.6,-0.8 0.2,-0.2 0.4,-0.4 0.5,-0.4 0.1,0 0.2,0 0.3,0.1 0.1,0.1 0.3,0.1 0.4,0.2 0.4,0.2 1,0.5 1.7,0.8 0.7,0.3 1.6,0.4 2.7,0.4 0.7,0 1.3,-0.1 1.9,-0.4 0.6,-0.2 1,-0.6 1.4,-1.1 0.3,-0.5 0.5,-1.1 0.5,-1.8 0,-0.8 -0.2,-1.4 -0.7,-1.9 -0.5,-0.5 -1,-0.9 -1.8,-1.2 -0.7,-0.3 -1.5,-0.6 -2.3,-1 -0.6,-0.2 -1.2,-0.5 -1.8,-0.8 -0.6,-0.3 -1.2,-0.7 -1.6,-1.1 -0.4,-0.4 -0.9,-1 -1.2,-1.7 -0.3,-0.7 -0.4,-1.5 -0.4,-2.5 0,-1.2 0.3,-2.3 0.9,-3.2 0.6,-0.9 1.4,-1.6 2.5,-2 1.1,-0.5 2.3,-0.7 3.6,-0.7 0.5,0 1.1,0 1.6,0.1 0.6,0.1 1.1,0.2 1.6,0.4 0.5,0.2 0.9,0.4 1.3,0.6 0.4,0.3 0.6,0.6 0.6,0.9 0,0.2 -0.1,0.4 -0.2,0.7 -0.1,0.3 -0.3,0.6 -0.5,0.8 -0.2,0.2 -0.4,0.4 -0.5,0.4 -0.1,0 -0.2,0 -0.3,-0.1 -0.1,-0.1 -0.3,-0.2 -0.6,-0.3 -0.3,-0.1 -0.7,-0.3 -1.2,-0.5 -0.5,-0.2 -1.1,-0.2 -1.8,-0.2 -0.8,0 -1.4,0.1 -2,0.4 -0.6,0.2 -1,0.6 -1.3,1.1 -0.3,0.5 -0.4,1 -0.4,1.6 0,0.7 0.2,1.3 0.6,1.7 0.4,0.4 0.9,0.8 1.5,1 0.6,0.3 1.3,0.5 2,0.8 0.7,0.3 1.4,0.6 2,0.9 0.7,0.3 1.3,0.7 1.9,1.2 0.6,0.5 1,1.1 1.4,1.8 0.3,0.7 0.5,1.6 0.5,2.7 0,1 -0.2,1.9 -0.5,2.7 -0.3,0.8 -0.8,1.4 -1.4,2 -0.6,0.5 -1.4,0.9 -2.2,1.2 -0.8,0.3 -1.8,0.4 -2.9,0.4 z"
   id="path1197" />
	<path
   class="st0"
   d="m 86.2,197 c -0.9,0 -1.4,-0.3 -1.4,-0.8 V 178 h -5.7 c -0.5,0 -0.7,-0.4 -0.7,-1.1 v -0.6 c 0,-0.7 0.2,-1.1 0.7,-1.1 h 14.6 c 0.5,0 0.7,0.4 0.7,1.1 v 0.6 c 0,0.7 -0.2,1.1 -0.7,1.1 h -5.6 v 18.2 c 0,0.5 -0.5,0.8 -1.4,0.8 z"
   id="path1199" />
	<path
   class="st0"
   d="m 97.1,197 c -1,0 -1.5,-0.2 -1.5,-0.6 0,-0.1 0,-0.2 0,-0.2 0,-0.1 0,-0.1 0.1,-0.2 l 7.2,-20.3 c 0.1,-0.4 0.6,-0.5 1.4,-0.5 h 1.1 c 0.8,0 1.3,0.2 1.4,0.5 L 114,196 c 0.1,0.2 0.1,0.3 0.1,0.5 0,0.4 -0.5,0.6 -1.4,0.6 h -0.5 c -0.4,0 -0.7,0 -0.9,-0.1 -0.2,-0.1 -0.4,-0.2 -0.5,-0.4 l -1.7,-4.7 h -8.7 l -1.6,4.7 c -0.1,0.2 -0.2,0.3 -0.5,0.4 -0.2,0.1 -0.5,0.1 -0.8,0.1 h -0.4 z m 4.4,-8.2 h 6.7 l -2.9,-8.3 c -0.1,-0.3 -0.2,-0.6 -0.2,-0.9 -0.1,-0.3 -0.1,-0.6 -0.2,-0.9 h -0.1 c -0.1,0.3 -0.1,0.6 -0.2,0.9 -0.1,0.3 -0.2,0.6 -0.3,0.9 z"
   id="path1201" />
	<path
   class="st0"
   d="m 129.4,197 c -0.9,0 -1.4,-0.3 -1.4,-0.8 v -20.3 c 0,-0.5 0.5,-0.8 1.4,-0.8 h 0.5 c 0.9,0 1.4,0.3 1.4,0.8 v 9.2 h 0.1 l 7,-9.5 c 0.1,-0.2 0.4,-0.3 0.7,-0.4 0.3,-0.1 0.7,-0.1 1,-0.1 h 0.6 c 0.8,0 1.2,0.1 1.2,0.4 0,0.2 -0.1,0.4 -0.3,0.6 l -7.3,9.6 8.8,10.2 c 0.2,0.2 0.2,0.4 0.2,0.6 0,0.3 -0.5,0.4 -1.5,0.4 h -0.7 c -0.4,0 -0.7,0 -1,-0.1 -0.3,0 -0.6,-0.2 -0.7,-0.4 l -8.1,-9.8 h -0.1 v 9.5 c 0,0.5 -0.5,0.8 -1.4,0.8 h -0.4 z"
   id="path1203" />
	<path
   class="st0"
   d="m 158.1,197 c -0.9,0 -1.4,-0.3 -1.4,-0.8 v -20 c 0,-0.7 0.3,-1 1,-1 h 9.9 c 0.5,0 0.7,0.4 0.7,1.1 v 0.6 c 0,0.7 -0.2,1.1 -0.7,1.1 H 160 v 7.1 h 7.2 c 0.5,0 0.7,0.4 0.7,1.1 v 0.6 c 0,0.7 -0.2,1.1 -0.7,1.1 H 160 v 8.3 c 0,0.5 -0.5,0.8 -1.4,0.8 z"
   id="path1205" />
	<path
   class="st0"
   d="m 175.3,197 c -1,0 -1.4,-0.3 -1.4,-0.8 v -20.3 c 0,-0.5 0.5,-0.8 1.4,-0.8 h 0.5 c 0.9,0 1.4,0.3 1.4,0.8 v 20.3 c 0,0.5 -0.5,0.8 -1.4,0.8 z"
   id="path1207" />
	<path
   class="st0"
   d="m 185.6,197 c -0.9,0 -1.4,-0.3 -1.4,-0.8 v -20.3 c 0,-0.5 0.5,-0.8 1.4,-0.8 h 0.8 c 0.4,0 0.7,0 0.9,0.1 0.2,0.1 0.4,0.3 0.6,0.5 l 9,13.7 c 0.2,0.3 0.4,0.6 0.6,0.9 0.2,0.3 0.3,0.6 0.5,0.9 h 0.1 c 0,-0.4 0,-0.7 0,-1 0,-0.3 0,-0.7 0,-1.1 v -13.3 c 0,-0.5 0.5,-0.8 1.4,-0.8 h 0.4 c 0.9,0 1.4,0.3 1.4,0.8 v 20.3 c 0,0.5 -0.5,0.8 -1.4,0.8 h -0.7 c -0.3,0 -0.6,0 -0.8,-0.1 -0.2,-0.1 -0.4,-0.2 -0.5,-0.4 l -9.3,-14 c -0.2,-0.3 -0.4,-0.6 -0.5,-0.9 -0.2,-0.3 -0.3,-0.6 -0.5,-0.9 h -0.1 c 0,0.4 0.1,0.7 0.1,1 0,0.3 0,0.7 0,1.1 v 13.5 c 0,0.5 -0.5,0.8 -1.4,0.8 z"
   id="path1209" />
	<path
   class="st0"
   d="m 207.4,197 c -1,0 -1.5,-0.2 -1.5,-0.6 0,-0.1 0,-0.2 0,-0.2 0,-0.1 0,-0.1 0.1,-0.2 l 7.2,-20.3 c 0.1,-0.4 0.6,-0.5 1.4,-0.5 h 1.1 c 0.8,0 1.3,0.2 1.4,0.5 l 7.2,20.3 c 0.1,0.2 0.1,0.3 0.1,0.5 0,0.4 -0.5,0.6 -1.4,0.6 h -0.5 c -0.4,0 -0.7,0 -0.9,-0.1 -0.2,-0.1 -0.4,-0.2 -0.5,-0.4 l -1.7,-4.7 h -8.7 l -1.6,4.7 c -0.1,0.2 -0.2,0.3 -0.5,0.4 -0.2,0.1 -0.5,0.1 -0.8,0.1 h -0.4 z m 4.3,-8.2 h 6.7 l -2.9,-8.3 c -0.1,-0.3 -0.2,-0.6 -0.2,-0.9 -0.1,-0.3 -0.1,-0.6 -0.2,-0.9 H 215 c -0.1,0.3 -0.1,0.6 -0.2,0.9 -0.1,0.3 -0.2,0.6 -0.3,0.9 z"
   id="path1211" />
	<path
   class="st0"
   d="m 230.3,197 c -0.9,0 -1.4,-0.3 -1.4,-0.8 v -20.3 c 0,-0.5 0.5,-0.8 1.4,-0.8 h 0.8 c 0.4,0 0.7,0 0.9,0.1 0.2,0.1 0.4,0.3 0.6,0.5 l 9,13.7 c 0.2,0.3 0.4,0.6 0.6,0.9 0.2,0.3 0.3,0.6 0.5,0.9 h 0.1 c 0,-0.4 0,-0.7 0,-1 0,-0.3 0,-0.7 0,-1.1 v -13.3 c 0,-0.5 0.5,-0.8 1.4,-0.8 h 0.4 c 0.9,0 1.4,0.3 1.4,0.8 v 20.3 c 0,0.5 -0.5,0.8 -1.4,0.8 h -0.7 c -0.3,0 -0.6,0 -0.8,-0.1 -0.2,-0.1 -0.4,-0.2 -0.5,-0.4 l -9.3,-14 c -0.2,-0.3 -0.4,-0.6 -0.5,-0.9 -0.2,-0.3 -0.3,-0.6 -0.5,-0.9 h -0.1 c 0,0.4 0.1,0.7 0.1,1 0,0.3 0,0.7 0,1.1 v 13.5 c 0,0.5 -0.5,0.8 -1.4,0.8 z"
   id="path1213" />
	<path
   class="st0"
   d="m 262,197.1 c -3.4,0 -5.9,-0.9 -7.6,-2.7 -1.6,-1.8 -2.5,-4.6 -2.5,-8.4 0,-7.4 3.4,-11 10.1,-11 0.7,0 1.4,0.1 2.1,0.2 0.7,0.1 1.3,0.2 1.9,0.4 0.6,0.2 1,0.4 1.4,0.6 0.5,0.3 0.7,0.6 0.7,0.9 0,0.2 -0.1,0.5 -0.2,0.8 -0.1,0.3 -0.3,0.6 -0.5,0.9 -0.2,0.3 -0.4,0.4 -0.6,0.4 -0.1,0 -0.3,-0.1 -0.7,-0.3 -0.4,-0.2 -0.9,-0.4 -1.6,-0.6 -0.7,-0.2 -1.5,-0.3 -2.5,-0.3 -2.3,0 -4,0.7 -5.1,2 -1.1,1.3 -1.7,3.4 -1.7,6.3 0,2.8 0.5,4.9 1.6,6.2 1.1,1.3 2.8,2 5.1,2 1.1,0 1.9,-0.1 2.7,-0.4 0.7,-0.2 1.3,-0.5 1.7,-0.7 0.4,-0.2 0.7,-0.4 0.9,-0.4 0.2,0 0.4,0.1 0.6,0.4 0.2,0.3 0.4,0.5 0.5,0.9 0.1,0.3 0.2,0.5 0.2,0.7 0,0.2 -0.1,0.4 -0.3,0.6 -0.2,0.2 -0.4,0.4 -0.7,0.6 -0.4,0.2 -0.9,0.4 -1.5,0.6 -0.6,0.2 -1.2,0.3 -1.9,0.4 -0.6,-0.2 -1.4,-0.1 -2.1,-0.1 z m -0.8,-23.5 c -0.6,0 -1,0 -1.2,-0.1 -0.3,-0.1 -0.5,-0.3 -0.8,-0.6 l -1.4,-1.7 c -0.2,-0.2 -0.3,-0.4 -0.3,-0.5 -0.1,-0.1 -0.1,-0.2 -0.1,-0.2 0,-0.1 0.1,-0.2 0.2,-0.3 0.1,-0.1 0.4,-0.1 0.7,-0.1 0.4,0 0.7,0 0.9,0.1 0.2,0.1 0.5,0.2 0.7,0.4 l 1.7,1.3 1.8,-1.3 c 0.2,-0.2 0.4,-0.3 0.6,-0.3 0.2,-0.1 0.5,-0.1 0.9,-0.1 0.4,0 0.6,0 0.7,0.1 0.1,0.1 0.2,0.2 0.2,0.3 0,0.1 0,0.2 -0.1,0.2 -0.1,0.1 -0.2,0.2 -0.4,0.5 L 264,173 c -0.2,0.3 -0.5,0.5 -0.8,0.6 -0.3,0.1 -0.7,0.1 -1.2,0.1 h -0.8 z"
   id="path1215" />
	<path
   class="st0"
   d="m 275.2,197 c -0.9,0 -1.4,-0.3 -1.4,-0.8 v -20.3 c 0,-0.5 0.5,-0.8 1.4,-0.8 h 0.8 c 0.4,0 0.7,0 0.9,0.1 0.2,0.1 0.4,0.3 0.6,0.5 l 9,13.7 c 0.2,0.3 0.4,0.6 0.6,0.9 0.2,0.3 0.3,0.6 0.5,0.9 h 0.1 c 0,-0.4 0,-0.7 0,-1 0,-0.3 0,-0.7 0,-1.1 v -13.3 c 0,-0.5 0.5,-0.8 1.4,-0.8 h 0.4 c 0.9,0 1.4,0.3 1.4,0.8 v 20.3 c 0,0.5 -0.5,0.8 -1.4,0.8 h -0.7 c -0.3,0 -0.6,0 -0.8,-0.1 -0.2,-0.1 -0.4,-0.2 -0.5,-0.4 l -9.3,-14 c -0.2,-0.3 -0.4,-0.6 -0.5,-0.9 -0.2,-0.3 -0.3,-0.6 -0.5,-0.9 h -0.1 c 0,0.4 0.1,0.7 0.1,1 0,0.3 0,0.7 0,1.1 v 13.5 c 0,0.5 -0.5,0.8 -1.4,0.8 z"
   id="path1217" />
	<path
   class="st0"
   d="m 297.7,173.6 c -0.6,0 -0.9,-0.1 -0.9,-0.4 0,-0.1 0,-0.2 0.1,-0.3 0.1,-0.1 0.1,-0.2 0.3,-0.3 l 1.7,-1.8 c 0.3,-0.3 0.6,-0.5 0.9,-0.6 0.3,-0.1 0.8,-0.2 1.5,-0.2 0.5,0 1,0 1.3,0.1 0.3,0.1 0.5,0.2 0.5,0.4 0,0.2 -0.1,0.3 -0.2,0.5 -0.1,0.2 -0.5,0.4 -0.9,0.7 l -1.9,1.2 c -0.4,0.3 -0.8,0.4 -1.1,0.5 -0.3,0.1 -0.7,0.2 -1.3,0.2 z m 1.6,23.4 c -1,0 -1.4,-0.3 -1.4,-0.8 v -20.3 c 0,-0.5 0.5,-0.8 1.4,-0.8 h 0.5 c 0.9,0 1.4,0.3 1.4,0.8 v 20.3 c 0,0.5 -0.5,0.8 -1.4,0.8 z"
   id="path1219" />
	<path
   class="st0"
   d="m 322.4,197.1 c -1.4,0 -2.6,-0.2 -3.6,-0.5 -1,-0.3 -1.8,-0.7 -2.3,-1 -0.4,-0.3 -0.7,-0.6 -0.7,-0.9 0,-0.2 0.1,-0.5 0.2,-0.8 0.2,-0.3 0.3,-0.6 0.6,-0.8 0.2,-0.2 0.4,-0.4 0.5,-0.4 0.1,0 0.2,0 0.3,0.1 0.1,0.1 0.3,0.1 0.4,0.2 0.4,0.2 1,0.5 1.7,0.8 0.7,0.3 1.6,0.4 2.7,0.4 0.7,0 1.3,-0.1 1.9,-0.4 0.6,-0.2 1,-0.6 1.4,-1.1 0.3,-0.5 0.5,-1.1 0.5,-1.8 0,-0.8 -0.2,-1.4 -0.7,-1.9 -0.5,-0.5 -1,-0.9 -1.8,-1.2 -0.7,-0.3 -1.5,-0.6 -2.3,-1 -0.6,-0.2 -1.2,-0.5 -1.8,-0.8 -0.6,-0.3 -1.2,-0.7 -1.6,-1.1 -0.4,-0.4 -0.9,-1 -1.2,-1.7 -0.3,-0.7 -0.4,-1.5 -0.4,-2.5 0,-1.2 0.3,-2.3 0.9,-3.2 0.6,-0.9 1.4,-1.6 2.5,-2 1.1,-0.5 2.3,-0.7 3.6,-0.7 0.5,0 1.1,0 1.6,0.1 0.6,0.1 1.1,0.2 1.6,0.4 0.5,0.2 0.9,0.4 1.3,0.6 0.4,0.3 0.6,0.6 0.6,0.9 0,0.2 -0.1,0.4 -0.2,0.7 -0.1,0.3 -0.3,0.6 -0.5,0.8 -0.2,0.2 -0.4,0.4 -0.5,0.4 -0.1,0 -0.2,0 -0.3,-0.1 -0.1,-0.1 -0.3,-0.2 -0.6,-0.3 -0.3,-0.1 -0.7,-0.3 -1.2,-0.5 -0.5,-0.2 -1.1,-0.2 -1.8,-0.2 -0.8,0 -1.4,0.1 -2,0.4 -0.6,0.2 -1,0.6 -1.3,1.1 -0.3,0.5 -0.4,1 -0.4,1.6 0,0.7 0.2,1.3 0.6,1.7 0.4,0.4 0.9,0.8 1.5,1 0.6,0.3 1.3,0.5 2,0.8 0.7,0.3 1.4,0.6 2,0.9 0.7,0.3 1.3,0.7 1.9,1.2 0.6,0.5 1,1.1 1.4,1.8 0.3,0.7 0.5,1.6 0.5,2.7 0,1 -0.2,1.9 -0.5,2.7 -0.3,0.8 -0.8,1.4 -1.4,2 -0.6,0.5 -1.4,0.9 -2.2,1.2 -0.8,0.3 -1.9,0.4 -2.9,0.4 z"
   id="path1221" />
	<path
   class="st0"
   d="m 340.3,197 c -0.9,0 -1.4,-0.3 -1.4,-0.8 V 178 h -5.7 c -0.5,0 -0.7,-0.4 -0.7,-1.1 v -0.6 c 0,-0.7 0.2,-1.1 0.7,-1.1 h 14.6 c 0.5,0 0.7,0.4 0.7,1.1 v 0.6 c 0,0.7 -0.2,1.1 -0.7,1.1 h -5.6 v 18.2 c 0,0.5 -0.5,0.8 -1.4,0.8 z"
   id="path1223" />
	<path
   class="st0"
   d="m 351.2,197 c -1,0 -1.5,-0.2 -1.5,-0.6 0,-0.1 0,-0.2 0,-0.2 0,-0.1 0,-0.1 0.1,-0.2 l 7.2,-20.3 c 0.1,-0.4 0.6,-0.5 1.4,-0.5 h 1.1 c 0.8,0 1.3,0.2 1.4,0.5 l 7.2,20.3 c 0.1,0.2 0.1,0.3 0.1,0.5 0,0.4 -0.5,0.6 -1.4,0.6 h -0.5 c -0.4,0 -0.7,0 -0.9,-0.1 -0.2,-0.1 -0.4,-0.2 -0.5,-0.4 l -1.7,-4.7 h -8.7 l -1.6,4.7 c -0.1,0.2 -0.2,0.3 -0.5,0.4 -0.2,0.1 -0.5,0.1 -0.8,0.1 h -0.4 z m 4.3,-8.2 h 6.7 l -2.9,-8.3 c -0.1,-0.3 -0.2,-0.6 -0.2,-0.9 -0.1,-0.3 -0.1,-0.6 -0.2,-0.9 h -0.1 c -0.1,0.3 -0.1,0.6 -0.2,0.9 -0.1,0.3 -0.2,0.6 -0.3,0.9 z"
   id="path1225" />
	<path
   class="st0"
   d="m 374,196.9 c -0.7,0 -1,-0.3 -1,-1 v -19.7 c 0,-0.7 0.3,-1 1,-1 h 5.7 c 2.4,0 4.2,0.5 5.3,1.5 1.1,1 1.7,2.3 1.7,4 0,0.7 -0.2,1.4 -0.5,2 -0.3,0.7 -0.7,1.2 -1.2,1.7 -0.5,0.5 -1.1,0.8 -1.7,1 v 0.1 c 0.1,0 0.4,0.1 0.7,0.2 0.3,0.1 0.7,0.3 1.1,0.6 0.4,0.3 0.8,0.6 1.2,1 0.4,0.4 0.7,0.9 0.9,1.4 0.2,0.5 0.4,1.2 0.4,1.9 0,2.1 -0.7,3.7 -2,4.7 -1.4,1 -3.4,1.5 -6,1.5 H 374 Z m 2.2,-12.6 h 3.2 c 1.2,0 2.1,-0.3 2.9,-1 0.7,-0.6 1.1,-1.4 1.1,-2.3 0,-1.1 -0.3,-1.8 -0.9,-2.3 -0.6,-0.5 -1.7,-0.8 -3.1,-0.8 h -3.1 v 6.4 z m 0,9.8 h 4.1 c 1.3,0 2.2,-0.3 2.9,-1 0.7,-0.7 1,-1.5 1,-2.7 0,-1.1 -0.4,-1.9 -1.1,-2.5 -0.7,-0.6 -1.9,-0.9 -3.3,-0.9 h -3.6 z"
   id="path1227" />
	<path
   class="st0"
   d="m 394.4,197 c -1,0 -1.4,-0.3 -1.4,-0.8 v -20.3 c 0,-0.5 0.5,-0.8 1.4,-0.8 h 0.5 c 0.9,0 1.4,0.3 1.4,0.8 v 20.3 c 0,0.5 -0.5,0.8 -1.4,0.8 z"
   id="path1229" />
	<path
   class="st0"
   d="m 404.5,196.9 c -0.7,0 -1,-0.3 -1,-1 v -20 c 0,-0.5 0.5,-0.8 1.4,-0.8 h 0.4 c 1,0 1.4,0.3 1.4,0.8 v 18.2 h 8 c 0.5,0 0.7,0.4 0.7,1.1 v 0.6 c 0,0.7 -0.2,1.1 -0.7,1.1 z"
   id="path1231" />
	<path
   class="st0"
   d="m 420.9,197 c -1,0 -1.4,-0.3 -1.4,-0.8 v -20.3 c 0,-0.5 0.5,-0.8 1.4,-0.8 h 0.5 c 0.9,0 1.4,0.3 1.4,0.8 v 20.3 c 0,0.5 -0.5,0.8 -1.4,0.8 z"
   id="path1233" />
	<path
   class="st0"
   d="m 435.5,197 c -0.9,0 -1.4,-0.3 -1.4,-0.8 V 178 h -5.7 c -0.5,0 -0.7,-0.4 -0.7,-1.1 v -0.6 c 0,-0.7 0.2,-1.1 0.7,-1.1 H 443 c 0.5,0 0.7,0.4 0.7,1.1 v 0.6 c 0,0.7 -0.2,1.1 -0.7,1.1 h -5.6 v 18.2 c 0,0.5 -0.5,0.8 -1.4,0.8 z"
   id="path1235" />
	<path
   class="st0"
   d="m 449.8,196.9 c -0.7,0 -1,-0.3 -1,-1 v -19.7 c 0,-0.7 0.3,-1 1,-1 h 10.9 c 0.5,0 0.7,0.4 0.7,1.1 v 0.6 c 0,0.7 -0.2,1.1 -0.7,1.1 h -8.6 v 6.4 h 7.7 c 0.5,0 0.7,0.4 0.7,1.1 v 0.6 c 0,0.7 -0.2,1.1 -0.7,1.1 h -7.7 v 6.9 h 8.6 c 0.5,0 0.7,0.4 0.7,1.1 v 0.6 c 0,0.7 -0.2,1.1 -0.7,1.1 z m 4.8,-23.3 c -0.5,0 -0.9,0 -1.2,-0.1 -0.3,-0.1 -0.5,-0.3 -0.8,-0.6 l -1.4,-1.7 c -0.2,-0.2 -0.3,-0.4 -0.3,-0.5 0,-0.1 -0.1,-0.2 -0.1,-0.2 0,-0.1 0.1,-0.2 0.2,-0.3 0.1,-0.1 0.4,-0.1 0.7,-0.1 0.4,0 0.6,0 0.9,0.1 0.3,0.1 0.5,0.2 0.7,0.4 l 1.7,1.3 1.8,-1.3 c 0.2,-0.2 0.5,-0.3 0.7,-0.3 0.2,-0.1 0.5,-0.1 0.9,-0.1 0.3,0 0.6,0 0.7,0.1 0.1,0.1 0.2,0.2 0.2,0.3 0,0.1 0,0.2 -0.1,0.2 -0.1,0.1 -0.2,0.2 -0.4,0.5 l -1.3,1.7 c -0.3,0.3 -0.5,0.5 -0.8,0.6 -0.3,0.1 -0.7,0.1 -1.2,0.1 h -0.9 z"
   id="path1237" />
</g>
<rect
   x="77.395065"
   y="-271.72839"
   transform="rotate(90)"
   class="st0"
   width="1.728395"
   height="271.72839"
   id="rect1241"
   style="stroke-width:0.617284" />
<g
   id="g1261"
   transform="matrix(0.61728395,0,0,0.61728395,-13.782778,-16.728395)">
	<g
   id="g1257">
		<path
   class="st0"
   d="m 41.8,41.9 c 0.5,-0.8 1.3,-1.2 2.4,-1.2 h 7.3 V 29.1 h -9.1 c -4.8,0 -8.3,1.2 -10.6,3.7 -2.3,2.5 -3.4,6.2 -3.4,11.2 v 7.6 h -6 v 10.8 h 6 v 45.3 H 41 V 62.4 H 51.4 V 51.6 H 41 V 45 c 0,-1.3 0.3,-2.3 0.8,-3.1 z"
   id="path1243" />
		<path
   class="st0"
   d="m 134.3,56.8 c -3.3,-4 -8,-6 -14,-6 -3.5,0 -6.5,0.9 -9.1,2.7 -2.1,1.4 -3.9,3.4 -5.4,5.9 V 51.6 H 93.2 v 56.2 h 12.7 V 72.9 c 0,-3.2 0.9,-5.6 2.7,-7.4 1.8,-1.7 4.3,-2.6 7.5,-2.6 3.4,0 6,0.9 7.8,2.8 1.9,1.9 2.8,4.6 2.8,8 v 34 h 12.7 v -34 c -0.1,-7.3 -1.8,-12.9 -5.1,-16.9 z"
   id="path1245" />
		<path
   class="st0"
   d="m 230.4,61.6 c -1.5,-3.5 -3.7,-6.2 -6.5,-8.1 -2.9,-1.8 -6.3,-2.8 -10.4,-2.8 -3.5,0 -6.7,1 -9.6,3 -2.7,1.9 -4.9,4.6 -6.7,8 0,0 0,-0.1 0,-0.1 -1.5,-3.5 -3.6,-6.2 -6.4,-8.1 -2.8,-1.8 -6.2,-2.8 -10.1,-2.8 -3.4,0 -6.4,0.9 -9.1,2.7 -2.1,1.5 -3.9,3.4 -5.4,5.9 v -7.8 h -12.7 v 56.2 h 12.7 V 72.9 c 0,-3.2 0.9,-5.6 2.7,-7.4 1.8,-1.7 4.3,-2.6 7.5,-2.6 3.3,0 5.9,1 7.7,3 1.8,2 2.7,4.8 2.7,8.5 v 33.3 h 12.7 V 74.4 c 0,-0.2 0,-0.3 0,-0.5 V 74 c 0,-3.5 0.9,-6.3 2.6,-8.2 1.7,-1.9 4.2,-2.9 7.4,-2.9 3.4,0 6,1 7.8,3 1.9,2 2.8,4.8 2.8,8.5 v 33.3 h 12.7 V 74.4 c -0.2,-5 -1,-9.2 -2.4,-12.8 z"
   id="path1247" />
		<path
   class="st0"
   d="m 287.7,60.4 c -1.8,-3.1 -4.4,-5.5 -7.7,-7.1 -3.4,-1.6 -7.4,-2.5 -12.2,-2.5 -4.4,0 -8.3,0.7 -11.9,2.1 -3.6,1.4 -6.4,3.4 -8.6,6 l 8.5,7 c 1.7,-1.2 3.5,-2.2 5.6,-2.9 2.1,-0.7 4.2,-1 6.4,-1 3.4,0 6.1,0.9 7.9,2.7 1.9,1.8 2.8,4.3 2.8,7.5 v 2.4 h -14.7 c -6.5,0 -11.4,1.4 -14.6,4.2 -3.2,2.8 -4.8,6.9 -4.8,12.5 0,5.8 1.6,10.2 4.9,13.1 3.2,2.9 8.1,4.3 14.7,4.3 2.5,0 4.9,-0.3 7,-0.9 2.1,-0.6 4,-1.4 5.5,-2.6 0.8,-0.6 1.5,-1.4 2.1,-2.2 v 4.8 h 11.8 V 71.7 c 0,-4.4 -0.9,-8.2 -2.7,-11.3 z M 275.6,97 c -2,0.9 -5.1,1.4 -9.2,1.4 -3.4,0 -6,-0.6 -7.7,-1.7 -1.7,-1.2 -2.5,-2.9 -2.5,-5.4 0,-2.3 0.6,-4 1.9,-5.1 1.3,-1.1 3.2,-1.7 5.8,-1.7 h 14.6 v 8.3 c 0.1,1.8 -0.9,3.3 -2.9,4.2 z"
   id="path1249" />
		<path
   class="st0"
   d="m 348.3,61.6 c -1.5,-3.5 -3.6,-6.2 -6.5,-8.1 -2.8,-1.8 -6.2,-2.8 -10.2,-2.8 -3.2,0 -6.1,0.9 -8.8,2.7 -2.1,1.4 -3.8,3.3 -5.2,5.6 V 51.5 H 305 v 79 h 12.7 v -30.1 c 1.2,2.3 2.8,4.2 4.8,5.5 2.5,1.7 5.4,2.5 8.9,2.5 4,0 7.5,-0.9 10.4,-2.8 2.9,-1.8 5.1,-4.5 6.6,-8 1.5,-3.5 2.3,-7.7 2.3,-12.6 V 74.4 c -0.1,-5 -0.9,-9.2 -2.4,-12.8 z m -10.4,23.6 c 0,3.8 -0.9,6.7 -2.7,8.7 -1.8,2.1 -4.3,3.1 -7.6,3.1 -2.1,0 -3.9,-0.4 -5.4,-1.2 -1.5,-0.8 -2.6,-2 -3.4,-3.5 -0.8,-1.5 -1.2,-3.4 -1.2,-5.6 V 72.6 c 0,-2.2 0.4,-4 1.2,-5.5 0.8,-1.5 1.9,-2.7 3.4,-3.5 1.5,-0.8 3.3,-1.2 5.4,-1.2 3.3,0 5.8,1.1 7.6,3.2 1.8,2.1 2.7,5.1 2.7,8.9 z"
   id="path1251" />
		<rect
   x="64.099998"
   y="51.599998"
   class="st0"
   width="12.7"
   height="56.200001"
   id="rect1253" />
		<circle
   class="st0"
   cx="70.400002"
   cy="35.400002"
   r="8.1000004"
   id="circle1255" />
	</g>
	<path
   class="st1"
   d="m 467,27.1 -11.5,2.4 c -4.6,1 -8.9,1.9 -17.8,1.9 -8.9,0 -13.2,-0.9 -17.8,-1.9 -4.9,-1.1 -10.1,-2.1 -20.1,-2.1 -10.1,0 -15.2,1.1 -20.1,2.1 l -4.5,1 v 96.7 h 11.3 v -36 c 3.3,-0.6 7.3,-1 13.3,-1 8.9,0 13.2,0.9 17.8,1.9 4.9,1.1 10.1,2.1 20.1,2.1 10.1,0 15.2,-1.1 20.1,-2.1 l 7.1,-1.5 -14.7,-29.8 z m -29.2,55.7 c -8.9,0 -13.2,-0.9 -17.8,-1.9 -4.9,-1.1 -10.1,-2.1 -20.1,-2.1 -5.7,0 -9.9,0.4 -13.3,0.9 v -40 c 3.3,-0.6 7.3,-1 13.3,-1 8.9,0 13.2,0.9 17.8,1.9 4.9,1.1 10.1,2.1 20.1,2.1 3.5,0 6.5,-0.1 9,-0.4 l -9.1,18.4 10.6,21.5 c -2.7,0.4 -6,0.6 -10.5,0.6 z"
   id="path1259" />
</g>
</svg>
