<?xml version="1.0" encoding="utf-8"?>
<!-- Generator: Adobe Illustrator 27.0.0, SVG Export Plug-In . SVG Version: 6.00 Build 0)  -->
<svg version="1.1" xmlns="http://www.w3.org/2000/svg" xmlns:xlink="http://www.w3.org/1999/xlink" x="0px" y="0px"
	 viewBox="0 0 206.9 158.6" style="enable-background:new 0 0 206.9 158.6;" xml:space="preserve">
<g id="BG">
</g>
<g id="Vrstva_1">
	<g>
		<path d="M161.2,82V69.2h-52.7V57.5c0,0,0,0,0,0c0-0.1,0-0.2-0.1-0.4c0,0,0-0.1-0.1-0.1c0-0.1-0.1-0.1-0.1-0.2c0,0-0.1-0.1-0.1-0.1
			c0,0,0,0-0.1-0.1L75.7,33.8c-0.3-0.2-0.8-0.2-1.2,0L42.1,56.7c0,0,0,0-0.1,0.1c0,0-0.1,0.1-0.1,0.1c-0.1,0.1-0.1,0.1-0.1,0.2
			c0,0,0,0.1-0.1,0.1c0,0.1-0.1,0.2-0.1,0.4c0,0,0,0,0,0V124c0,0.6,0.4,1,1,1h122.5V82H161.2z M159.2,71.2V82h-50.7V71.2H159.2z
			 M75.1,35.8l29.2,20.7H45.9L75.1,35.8z M57.6,123V97.5h10.6V123H57.6z M106.5,123H70.3V95.5H55.6V123H43.7V58.5h62.7V123z
			 M118.3,123V96.3h35V123H118.3z M163.2,123h-7.9V94.3h-39V123h-7.9V84h54.7V123z"/>
		<path d="M55.6,84.9h14.6V69.2H55.6V84.9z M57.6,71.2h10.6v11.6H57.6V71.2z"/>
		<path d="M79.9,84.9h14.6V69.2H79.9V84.9z M81.9,71.2h10.6v11.6H81.9V71.2z"/>
		<path d="M79.9,111.1h14.6V95.5H79.9V111.1z M81.9,97.5h10.6v11.6H81.9V97.5z"/>
	</g>
</g>
<g id="hovers">
</g>
<g id="Vrstva_4">
</g>
<g id="Vrstva_5">
</g>
<g id="Vrstva_6">
</g>
</svg>
