<?xml version="1.0" encoding="utf-8"?>
<!-- Generator: Adobe Illustrator 27.0.0, SVG Export Plug-In . SVG Version: 6.00 Build 0)  -->
<svg version="1.1" xmlns="http://www.w3.org/2000/svg" xmlns:xlink="http://www.w3.org/1999/xlink" x="0px" y="0px"
	 viewBox="0 0 206.9 158.6" style="enable-background:new 0 0 206.9 158.6;" xml:space="preserve">
<g id="BG">
</g>
<g id="Vrstva_1">
	<g>
		<path d="M151.5,79.3V39.5H48.2V111h78.7c3.7,7.2,11.1,12.1,19.8,12.1c12.2,0,22.2-9.9,22.2-22.2C168.7,90.4,161.3,81.6,151.5,79.3
			z M149.5,41.5v10H50.2v-10H149.5z M50.2,109V53.5h99.3V79c-0.9-0.1-1.9-0.2-2.9-0.2c-2.4,0-4.8,0.4-7,1.1V64h-2v16.7
			c-4.7,2.1-8.6,5.8-10.9,10.5V71.1h-2v26.3c-0.2,1.2-0.3,2.3-0.3,3.5c0,2.8,0.5,5.5,1.5,8H50.2z M146.6,121.1
			c-11.1,0-20.2-9-20.2-20.2c0-0.9,0.1-1.8,0.2-2.6h0.1v-0.6c1.6-9.6,9.9-16.9,19.9-16.9c11.1,0,20.2,9,20.2,20.2
			S157.7,121.1,146.6,121.1z"/>
		<polygon points="147.6,86.4 145.6,86.4 145.6,103.1 157,103.1 157,101.1 147.6,101.1 		"/>
		<rect x="60.1" y="78.5" width="2" height="23.6"/>
		<rect x="73" y="78.5" width="2" height="23.6"/>
		<rect x="86" y="71.1" width="2" height="31"/>
		<rect x="98.9" y="67.4" width="2" height="34.7"/>
		<rect x="111.8" y="71.1" width="2" height="31"/>
	</g>
</g>
<g id="hovers">
</g>
<g id="Vrstva_4">
</g>
<g id="Vrstva_5">
</g>
<g id="Vrstva_6">
</g>
</svg>
