<?xml version="1.0" encoding="utf-8"?>
<!-- Generator: Adobe Illustrator 27.0.0, SVG Export Plug-In . SVG Version: 6.00 Build 0)  -->
<svg version="1.1" xmlns="http://www.w3.org/2000/svg" xmlns:xlink="http://www.w3.org/1999/xlink" x="0px" y="0px"
	 viewBox="0 0 206.9 158.6" style="enable-background:new 0 0 206.9 158.6;" xml:space="preserve">
<g id="BG">
</g>
<g id="Vrstva_1">
	<g>
		<path d="M64.7,55.7H37.9c-4.8,0-8.8,3.9-8.8,8.8V88c0,3,2.5,5.5,5.5,5.5c1.3,0,2.5-0.5,3.5-1.3V125h26.5V92.2
			c0.9,0.8,2.2,1.3,3.5,1.3c3,0,5.5-2.5,5.5-5.5V64.4C73.5,59.6,69.6,55.7,64.7,55.7z M71.5,88c0,1.9-1.6,3.5-3.5,3.5
			s-3.5-1.6-3.5-3.5h0V68.8h-2V123H52.3V89.3h-2V123H40V68.8h-2V88h0c0,1.9-1.6,3.5-3.5,3.5s-3.5-1.6-3.5-3.5V64.4
			c0-3.7,3-6.8,6.8-6.8h26.9c3.7,0,6.8,3,6.8,6.8V88z"/>
		<path d="M51.3,49.5c5.6,0,10.1-4.5,10.1-10.1s-4.5-10.1-10.1-10.1c-5.6,0-10.1,4.5-10.1,10.1S45.7,49.5,51.3,49.5z M51.3,31.2
			c4.5,0,8.1,3.6,8.1,8.1s-3.6,8.1-8.1,8.1c-4.5,0-8.1-3.6-8.1-8.1S46.8,31.2,51.3,31.2z"/>
		<path d="M174.2,55.4H90c-4.9,0-8.9,4-8.9,8.9v52.8c0,4.9,4,8.9,8.9,8.9h84.2c4.9,0,8.9-4,8.9-8.9V64.3
			C183.1,59.4,179.1,55.4,174.2,55.4z M181.1,117.2c0,3.8-3.1,6.9-6.9,6.9H90c-3.8,0-6.9-3.1-6.9-6.9V64.3c0-3.8,3.1-6.9,6.9-6.9
			h84.2c3.8,0,6.9,3.1,6.9,6.9V117.2z"/>
		<path d="M89.6,117.6h84.9V63.9H89.6V117.6z M91.6,65.9h80.9v49.6H91.6V65.9z"/>
		<path d="M115.5,76.1c-8.1,0-14.6,6.6-14.6,14.6s6.6,14.6,14.6,14.6c8.1,0,14.6-6.6,14.6-14.6S123.6,76.1,115.5,76.1z M102.9,90.7
			c0-6.6,5.1-12.1,11.6-12.6v13l9.2,9.2c-2.2,1.9-5.1,3-8.2,3C108.6,103.4,102.9,97.7,102.9,90.7z M125.1,98.9l-8.6-8.6V78.2
			c6.5,0.5,11.6,6,11.6,12.6C128.1,93.9,127,96.7,125.1,98.9z"/>
		<rect x="140.9" y="88.8" width="2" height="15.6"/>
		<rect x="150" y="79.1" width="2" height="25.2"/>
		<rect x="159.1" y="85.1" width="2" height="19.3"/>
	</g>
</g>
<g id="hovers">
</g>
<g id="Vrstva_4">
</g>
<g id="Vrstva_5">
</g>
<g id="Vrstva_6">
</g>
</svg>
