<?xml version="1.0" encoding="utf-8"?>
<!-- Generator: Adobe Illustrator 27.0.0, SVG Export Plug-In . SVG Version: 6.00 Build 0)  -->
<svg version="1.1" xmlns="http://www.w3.org/2000/svg" xmlns:xlink="http://www.w3.org/1999/xlink" x="0px" y="0px"
	 viewBox="0 0 206.9 158.6" style="enable-background:new 0 0 206.9 158.6;" xml:space="preserve">
<g id="BG">
</g>
<g id="Vrstva_1">
	<g>
		<path d="M103.5,22.8c-28.8,0-52.1,23.4-52.1,52.1v1H53l0.3-0.5c1.9-3.3,5.4-5.3,9.1-5.3c3.8,0,7.3,2,9.1,5.3l0.3,0.5h1.7l0.3-0.5
			c1.9-3.3,5.4-5.3,9.1-5.3s7.3,2,9.1,5.3l0.3,0.5H94l0.3-0.5c1.7-3,4.8-4.9,8.1-5.3v59.7c0,3.2,2.6,5.9,5.9,5.9
			c3.2,0,5.9-2.6,5.9-5.9v-2.9h-2v2.9c0,2.1-1.7,3.9-3.9,3.9s-3.9-1.7-3.9-3.9V70.2c3.4,0.3,6.4,2.3,8.1,5.3l0.3,0.5h1.7l0.3-0.5
			c1.9-3.3,5.4-5.3,9.1-5.3c3.8,0,7.3,2,9.1,5.3l0.3,0.5h1.7l0.3-0.5c1.9-3.3,5.4-5.3,9.1-5.3c3.8,0,7.3,2,9.1,5.3l0.3,0.5h1.7v-1
			C155.6,46.2,132.2,22.8,103.5,22.8z M144.4,68.1c-4.1,0-7.9,2-10.2,5.4c-2.3-3.3-6.2-5.4-10.2-5.4c-4.1,0-7.9,2-10.2,5.4
			c-2.3-3.3-6.2-5.4-10.2-5.4c-4.1,0-7.9,2-10.2,5.4c-2.3-3.3-6.2-5.4-10.2-5.4s-7.9,2-10.2,5.4c-2.3-3.3-6.2-5.4-10.2-5.4
			c-3.5,0-6.7,1.4-9.1,3.9c1.5-26.3,23.4-47.2,50.1-47.2S152,45.7,153.5,72C151.2,69.6,147.9,68.1,144.4,68.1z"/>
		<path d="M124.8,86.9c0-2.5-2-4.5-4.5-4.5s-4.5,2-4.5,4.5s2,4.5,4.5,4.5S124.8,89.4,124.8,86.9z M117.8,86.9c0-1.4,1.1-2.5,2.5-2.5
			c1.4,0,2.5,1.1,2.5,2.5c0,1.4-1.1,2.5-2.5,2.5C118.9,89.5,117.8,88.3,117.8,86.9z"/>
		<path d="M121,93c-0.2-0.2-0.4-0.3-0.7-0.3s-0.5,0.1-0.7,0.3l0,0l-8,8.6l1.5,1.4l6.3-6.7v7.8l-6.3,13.1l1.8,0.9l5.4-11.3L125,118
			l1.8-0.8l-5.6-13.2v-7.9l6.3,6.7l1.5-1.4L121,93L121,93z"/>
		<path d="M90.6,86.9c0-2.5-2-4.5-4.5-4.5s-4.5,2-4.5,4.5s2,4.5,4.5,4.5S90.6,89.4,90.6,86.9z M83.6,86.9c0-1.4,1.1-2.5,2.5-2.5
			c1.4,0,2.5,1.1,2.5,2.5c0,1.4-1.1,2.5-2.5,2.5C84.7,89.5,83.6,88.3,83.6,86.9z"/>
		<path d="M86.8,93c-0.2-0.2-0.4-0.3-0.7-0.3s-0.5,0.1-0.7,0.3l0,0l-8,8.6l1.5,1.4l6.3-6.7v1.9l-6.8,18.3h14.8l-6-18.2v-1.9l6.3,6.7
			l1.5-1.4L86.8,93L86.8,93z M81.1,114.4l4.9-13.1l4.3,13.1H81.1z"/>
		<path d="M68.2,93.2c0-2.5-2-4.5-4.5-4.5c-2.5,0-4.5,2-4.5,4.5s2,4.5,4.5,4.5C66.2,97.7,68.2,95.7,68.2,93.2z M61.2,93.2
			c0-1.4,1.1-2.5,2.5-2.5c1.4,0,2.5,1.1,2.5,2.5c0,1.4-1.1,2.5-2.5,2.5C62.3,95.7,61.2,94.6,61.2,93.2z"/>
		<path d="M64.4,99c-0.2-0.2-0.4-0.3-0.7-0.3s-0.5,0.1-0.7,0.3l0,0l-6,6.5l1.5,1.4l4.3-4.6v5.2l-4.7,9.8l1.8,0.9l3.8-8l3.4,8
			l1.8-0.8l-4.1-9.8v-5.2l4.3,4.6l1.5-1.4L64.4,99L64.4,99z"/>
		<path d="M147.2,94.3c0-2.5-2-4.5-4.5-4.5s-4.5,2-4.5,4.5s2,4.5,4.5,4.5S147.2,96.7,147.2,94.3z M140.2,94.3c0-1.4,1.1-2.5,2.5-2.5
			c1.4,0,2.5,1.1,2.5,2.5c0,1.4-1.1,2.5-2.5,2.5C141.3,96.8,140.2,95.6,140.2,94.3z"/>
		<path d="M143.5,100.1c-0.2-0.2-0.4-0.3-0.7-0.3s-0.5,0.1-0.7,0.3l0,0l-7.2,7.6l1.5,1.4l5.4-5.8v2.1l-4.8,11H148l-4.2-10.9v-2.1
			l3.6,3.9l0.1,0l1.8,1.9l1.5-1.4L143.5,100.1L143.5,100.1z M140,114.4l2.7-6.1l2.4,6.1H140z"/>
	</g>
</g>
<g id="hovers">
</g>
<g id="Vrstva_4">
</g>
<g id="Vrstva_5">
</g>
<g id="Vrstva_6">
</g>
</svg>
