<?xml version="1.0" encoding="utf-8"?>
<!-- Generator: Adobe Illustrator 27.0.0, SVG Export Plug-In . SVG Version: 6.00 Build 0)  -->
<svg version="1.1" xmlns="http://www.w3.org/2000/svg" xmlns:xlink="http://www.w3.org/1999/xlink" x="0px" y="0px"
	 viewBox="0 0 206.9 158.6" style="enable-background:new 0 0 206.9 158.6;" xml:space="preserve">
<g id="BG">
</g>
<g id="Vrstva_1">
	<g>
		<path d="M160,34.1h-113c-4.9,0-8.9,4-8.9,8.9v72.6c0,4.9,4,8.9,8.9,8.9h113c4.9,0,8.9-4,8.9-8.9V43
			C168.9,38.1,164.9,34.1,160,34.1z M166.9,115.6c0,3.8-3.1,6.9-6.9,6.9h-113c-3.8,0-6.9-3.1-6.9-6.9V43c0-3.8,3.1-6.9,6.9-6.9h113
			c3.8,0,6.9,3.1,6.9,6.9V115.6z"/>
		<path d="M47,114.8h112.9v-71H47V114.8z M49,45.8h108.9v67H49V45.8z"/>
		<path d="M92.4,70.6c-4.8,0-8.7,3.9-8.7,8.7c0,4.8,3.9,8.7,8.7,8.7c4.8,0,8.7-3.9,8.7-8.7C101.1,74.5,97.2,70.6,92.4,70.6z
			 M92.4,86c-3.7,0-6.7-3-6.7-6.7s3-6.7,6.7-6.7s6.7,3,6.7,6.7S96.1,86,92.4,86z"/>
		<path d="M108,70.4l3.7-3.7l-6.8-6.8l-3.7,3.7c-1.3-0.7-2.7-1.3-4.1-1.7v-5.2h-9.6v5.2c-1.4,0.4-2.8,1-4.1,1.7l-3.7-3.7L73,66.7
			l3.7,3.7c-0.7,1.3-1.3,2.7-1.7,4.1h-5.2v9.6H75c0.4,1.4,1,2.8,1.7,4.1L73,91.9l6.8,6.8l3.7-3.7c1.3,0.7,2.7,1.3,4.1,1.7v5.2h9.6
			v-5.2c1.4-0.4,2.8-1,4.1-1.7l3.7,3.7l6.8-6.8l-3.7-3.7c0.7-1.3,1.3-2.7,1.7-4.1h5.2v-9.6h-5.2C109.3,73.1,108.8,71.7,108,70.4z
			 M113,82.1h-4.8l-0.2,0.8c-0.4,1.7-1.1,3.4-2,4.9l-0.4,0.7l3.4,3.4l-4,4l-3.4-3.4l-0.7,0.4c-1.5,1-3.2,1.6-4.9,2l-0.8,0.2v4.8
			h-5.6v-4.8l-0.8-0.2c-1.7-0.4-3.4-1.1-4.9-2l-0.7-0.4l-3.4,3.4l-4-4l3.4-3.4l-0.4-0.7c-1-1.5-1.6-3.2-2-4.9l-0.2-0.8h-4.8v-5.6
			h4.8l0.2-0.8c0.4-1.7,1.1-3.4,2-4.9l0.4-0.7l-3.4-3.4l4-4l3.4,3.4l0.7-0.4c1.5-1,3.2-1.6,4.9-2l0.8-0.2v-4.8h5.6v4.8l0.8,0.2
			c1.7,0.4,3.4,1.1,4.9,2l0.7,0.4l3.4-3.4l4,4l-3.4,3.4l0.4,0.7c1,1.5,1.6,3.2,2,4.9l0.2,0.8h4.8V82.1z"/>
		<path d="M137.1,64.6c0-2.9-1.6-5.7-4.2-7.1l-1.5-0.8V63l-2.5,1.3l-2.5-1.3v-6.4l-1.5,0.8c-2.6,1.5-4.2,4.2-4.2,7.1
			c0,2.7,1.4,5.3,3.7,6.8V88c-2.3,1.5-3.7,4.1-3.7,6.8c0,2.9,1.6,5.7,4.2,7.1l1.5,0.8v-6.4l2.5-1.3l2.5,1.3v6.4l1.5-0.8
			c2.6-1.5,4.2-4.2,4.2-7.1c0-2.7-1.4-5.3-3.7-6.8V71.4C135.7,69.9,137.1,67.4,137.1,64.6z M132,89.4c1.9,1.1,3.1,3.2,3.1,5.4
			c0,1.6-0.6,3.1-1.7,4.2v-3.9l-4.5-2.3l-4.5,2.3V99c-1-1.1-1.7-2.6-1.7-4.2c0-2.2,1.2-4.3,3.1-5.4l0.5-0.3V70.3l-0.5-0.3
			c-1.9-1.1-3.1-3.2-3.1-5.4c0-1.6,0.6-3.1,1.7-4.2v3.9l4.5,2.3l4.5-2.3v-3.9c1,1.1,1.7,2.6,1.7,4.2c0,2.2-1.2,4.3-3.1,5.4l-0.5,0.3
			v18.9L132,89.4z"/>
	</g>
</g>
<g id="hovers">
</g>
<g id="Vrstva_4">
</g>
<g id="Vrstva_5">
</g>
<g id="Vrstva_6">
</g>
</svg>
