<?xml version="1.0" encoding="utf-8"?>
<!-- Generator: Adobe Illustrator 27.0.0, SVG Export Plug-In . SVG Version: 6.00 Build 0)  -->
<svg version="1.1" xmlns="http://www.w3.org/2000/svg" xmlns:xlink="http://www.w3.org/1999/xlink" x="0px" y="0px"
	 viewBox="0 0 206.9 158.6" style="enable-background:new 0 0 206.9 158.6;" xml:space="preserve">
<g id="BG">
</g>
<g id="Vrstva_1">
	<g>
		<path d="M99.1,75.7L97.6,77c2,2.3,4.8,3.5,8.3,3.8v5h2v-5c5.5-0.2,9.7-3,9.7-6.5c0-4.1-4.9-5.4-9.7-6.4v-7.6
			c3.1,0.2,5.3,1.8,6.1,2.5l1.3-1.5c-1-0.9-3.6-2.8-7.4-3v-4.8h-2v4.8c-4.5,0.4-7.9,2.7-7.9,5.7c0,3.3,2.5,4.5,7.9,5.5v9.1
			C103,78.6,100.7,77.5,99.1,75.7z M115.6,74.4c0,2.3-3.5,4.3-7.7,4.5v-8.8C113.3,71.2,115.6,72.4,115.6,74.4z M99.9,64.2
			c0-1.8,2.6-3.4,5.9-3.7v7.2C100.6,66.6,99.9,65.7,99.9,64.2z"/>
		<path d="M141.8,93.1v7.6h-19.6l-4.5-3.2c10.3-3.9,17.2-12.9,17.2-22.9c0-12.7-11.2-31.9-26.5-33.4c6-1,11-6.7,11-11.2
			c0-1.1-0.3-2-1-2.6c-1.4-1.2-3.8-1-6.8-0.7c-1.5,0.2-3.3,0.3-5.1,0.3s-3.6-0.2-5.1-0.3c-3-0.3-5.4-0.5-6.8,0.7
			c-0.7,0.6-1,1.5-1,2.6c0,4.5,5,10.2,11,11.2c-15.2,1.5-26.5,20.7-26.5,33.4c0,5.1,1.7,9.9,5,14.1c-0.4,0.5-0.8,1.1-1.1,1.8
			c-2.2,6,1.5,7.9,1.6,7.9l11.3,6.9l-3.7,2H80.4L76,95.4c-0.9-1.9-3.6-5.2-7.7-3.6c-4.3,1.7-4.3,5.6-3.7,7.4l2.7,8.1h-1.2l-11.3-6.2
			c-1.5-0.9-5.1-1.5-7.4,2.3c-2.3,4.2-0.2,7,1.2,8l16.9,9.1l27.8,5.5l37.8,0l10.5-2.6v8.7h18.7v-39H141.8z M95.6,30
			c0-0.8,0.3-1.1,0.4-1.2c0.3-0.3,1.1-0.4,2-0.4c0.9,0,2.1,0.1,3.3,0.2c1.6,0.2,3.4,0.3,5.3,0.3s3.7-0.2,5.3-0.3
			c2.3-0.2,4.5-0.5,5.2,0.2c0.1,0.1,0.4,0.3,0.4,1.2c0,3.7-4.9,9.4-10.9,9.4S95.6,33.7,95.6,30z M106.4,43.1
			c14.6,0,26.4,19.1,26.4,31.5c0,9.6-6.9,18.1-17.2,21.5l-1.4-1L89,86.9c-1.1-0.3-2.8-0.3-4.4,0.5c-3-3.8-4.6-8.2-4.6-12.8
			C80.1,62.2,91.9,43.1,106.4,43.1z M66.5,98.6c-0.1-0.4-1-3.5,2.5-4.9c3.3-1.3,5.1,2.4,5.1,2.5l4.1,11.1h-8.8L66.5,98.6z M131,124
			H93.8l-27.4-5.4l-16.6-8.9c-0.3-0.2-2.4-1.8-0.5-5.2c1.8-3,4.4-1.7,4.7-1.6l11.7,6.5h26.1l7.2-3.9l-14.3-8.7
			c-0.1,0-2.2-1.2-0.7-5.5c1.2-3.1,4.3-2.5,4.6-2.4l24.8,8.1l8.2,5.8h20.2v18.7L131,124z M158.4,130.1h-14.7v-35h14.7V130.1z"/>
	</g>
</g>
<g id="hovers">
</g>
<g id="Vrstva_4">
</g>
<g id="Vrstva_5">
</g>
<g id="Vrstva_6">
</g>
</svg>
